  0
SECTION
  2
HEADER
  9
$ACADVER
  1
AC1024
  9
$ACADMAINTVER
 70
6
  9
$DWGCODEPAGE
  3
ANSI_1252
  9
$LASTSAVEDBY
  1
ezdxf
  9
$INSBASE
 10
0.0
 20
0.0
 30
0.0
  9
$EXTMIN
 10
1e+20
 20
1e+20
 30
1e+20
  9
$EXTMAX
 10
-1e+20
 20
-1e+20
 30
-1e+20
  9
$LIMMIN
 10
0.0
 20
0.0
  9
$LIMMAX
 10
420.0
 20
297.0
  9
$ORTHOMODE
 70
0
  9
$REGENMODE
 70
1
  9
$FILLMODE
 70
1
  9
$QTEXTMODE
 70
0
  9
$MIRRTEXT
 70
1
  9
$LTSCALE
 40
1.0
  9
$ATTMODE
 70
1
  9
$TEXTSIZE
 40
2.5
  9
$TRACEWID
 40
1.0
  9
$TEXTSTYLE
  7
Standard
  9
$CLAYER
  8
0
  9
$CELTYPE
  6
ByLayer
  9
$CECOLOR
 62
256
  9
$CELTSCALE
 40
1.0
  9
$DISPSILH
 70
0
  9
$DIMSCALE
 40
1.0
  9
$DIMASZ
 40
2.5
  9
$DIMEXO
 40
0.625
  9
$DIMDLI
 40
3.75
  9
$DIMRND
 40
0.0
  9
$DIMDLE
 40
0.0
  9
$DIMEXE
 40
1.25
  9
$DIMTP
 40
0.0
  9
$DIMTM
 40
0.0
  9
$DIMTXT
 40
2.5
  9
$DIMCEN
 40
2.5
  9
$DIMTSZ
 40
0.0
  9
$DIMTOL
 70
0
  9
$DIMLIM
 70
0
  9
$DIMTIH
 70
0
  9
$DIMTOH
 70
0
  9
$DIMSE1
 70
0
  9
$DIMSE2
 70
0
  9
$DIMTAD
 70
1
  9
$DIMZIN
 70
8
  9
$DIMBLK
  1

  9
$DIMASO
 70
1
  9
$DIMSHO
 70
1
  9
$DIMPOST
  1

  9
$DIMAPOST
  1

  9
$DIMALT
 70
0
  9
$DIMALTD
 70
3
  9
$DIMALTF
 40
0.03937007874
  9
$DIMLFAC
 40
1.0
  9
$DIMTOFL
 70
1
  9
$DIMTVP
 40
0.0
  9
$DIMTIX
 70
0
  9
$DIMSOXD
 70
0
  9
$DIMSAH
 70
0
  9
$DIMBLK1
  1

  9
$DIMBLK2
  1

  9
$DIMSTYLE
  2
ISO-25
  9
$DIMCLRD
 70
0
  9
$DIMCLRE
 70
0
  9
$DIMCLRT
 70
0
  9
$DIMTFAC
 40
1.0
  9
$DIMGAP
 40
0.625
  9
$DIMJUST
 70
0
  9
$DIMSD1
 70
0
  9
$DIMSD2
 70
0
  9
$DIMTOLJ
 70
0
  9
$DIMTZIN
 70
8
  9
$DIMALTZ
 70
0
  9
$DIMALTTZ
 70
0
  9
$DIMUPT
 70
0
  9
$DIMDEC
 70
2
  9
$DIMTDEC
 70
2
  9
$DIMALTU
 70
2
  9
$DIMALTTD
 70
3
  9
$DIMTXSTY
  7
Standard
  9
$DIMAUNIT
 70
0
  9
$DIMADEC
 70
0
  9
$DIMALTRND
 40
0.0
  9
$DIMAZIN
 70
0
  9
$DIMDSEP
 70
44
  9
$DIMATFIT
 70
3
  9
$DIMFRAC
 70
0
  9
$DIMLDRBLK
  1

  9
$DIMLUNIT
 70
2
  9
$DIMLWD
 70
-2
  9
$DIMLWE
 70
-2
  9
$DIMTMOVE
 70
0
  9
$DIMFXL
 40
1.0
  9
$DIMFXLON
 70
0
  9
$DIMJOGANG
 40
0.785398163397
  9
$DIMTFILL
 70
0
  9
$DIMTFILLCLR
 70
0
  9
$DIMARCSYM
 70
0
  9
$DIMLTYPE
  6

  9
$DIMLTEX1
  6

  9
$DIMLTEX2
  6

  9
$DIMTXTDIRECTION
 70
0
  9
$LUNITS
 70
2
  9
$LUPREC
 70
4
  9
$SKETCHINC
 40
1.0
  9
$FILLETRAD
 40
10.0
  9
$AUNITS
 70
0
  9
$AUPREC
 70
2
  9
$MENU
  1
.
  9
$ELEVATION
 40
0.0
  9
$PELEVATION
 40
0.0
  9
$THICKNESS
 40
0.0
  9
$LIMCHECK
 70
0
  9
$CHAMFERA
 40
0.0
  9
$CHAMFERB
 40
0.0
  9
$CHAMFERC
 40
0.0
  9
$CHAMFERD
 40
0.0
  9
$SKPOLY
 70
0
  9
$TDCREATE
 40
2461201.473263889
  9
$TDUCREATE
 40
2458532.153996898
  9
$TDUPDATE
 40
2461201.473263889
  9
$TDUUPDATE
 40
2458532.1544311
  9
$TDINDWG
 40
0.0
  9
$TDUSRTIMER
 40
0.0
  9
$USRTIMER
 70
1
  9
$ANGBASE
 50
0.0
  9
$ANGDIR
 70
0
  9
$PDMODE
 70
0
  9
$PDSIZE
 40
0.0
  9
$PLINEWID
 40
0.0
  9
$SPLFRAME
 70
0
  9
$SPLINETYPE
 70
6
  9
$SPLINESEGS
 70
8
  9
$HANDSEED
  5
14A
  9
$SURFTAB1
 70
6
  9
$SURFTAB2
 70
6
  9
$SURFTYPE
 70
6
  9
$SURFU
 70
6
  9
$SURFV
 70
6
  9
$UCSBASE
  2

  9
$UCSNAME
  2

  9
$UCSORG
 10
0.0
 20
0.0
 30
0.0
  9
$UCSXDIR
 10
1.0
 20
0.0
 30
0.0
  9
$UCSYDIR
 10
0.0
 20
1.0
 30
0.0
  9
$UCSORTHOREF
  2

  9
$UCSORTHOVIEW
 70
0
  9
$UCSORGTOP
 10
0.0
 20
0.0
 30
0.0
  9
$UCSORGBOTTOM
 10
0.0
 20
0.0
 30
0.0
  9
$UCSORGLEFT
 10
0.0
 20
0.0
 30
0.0
  9
$UCSORGRIGHT
 10
0.0
 20
0.0
 30
0.0
  9
$UCSORGFRONT
 10
0.0
 20
0.0
 30
0.0
  9
$UCSORGBACK
 10
0.0
 20
0.0
 30
0.0
  9
$PUCSBASE
  2

  9
$PUCSNAME
  2

  9
$PUCSORG
 10
0.0
 20
0.0
 30
0.0
  9
$PUCSXDIR
 10
1.0
 20
0.0
 30
0.0
  9
$PUCSYDIR
 10
0.0
 20
1.0
 30
0.0
  9
$PUCSORTHOREF
  2

  9
$PUCSORTHOVIEW
 70
0
  9
$PUCSORGTOP
 10
0.0
 20
0.0
 30
0.0
  9
$PUCSORGBOTTOM
 10
0.0
 20
0.0
 30
0.0
  9
$PUCSORGLEFT
 10
0.0
 20
0.0
 30
0.0
  9
$PUCSORGRIGHT
 10
0.0
 20
0.0
 30
0.0
  9
$PUCSORGFRONT
 10
0.0
 20
0.0
 30
0.0
  9
$PUCSORGBACK
 10
0.0
 20
0.0
 30
0.0
  9
$USERI1
 70
0
  9
$USERI2
 70
0
  9
$USERI3
 70
0
  9
$USERI4
 70
0
  9
$USERI5
 70
0
  9
$USERR1
 40
0.0
  9
$USERR2
 40
0.0
  9
$USERR3
 40
0.0
  9
$USERR4
 40
0.0
  9
$USERR5
 40
0.0
  9
$WORLDVIEW
 70
1
  9
$SHADEDGE
 70
3
  9
$SHADEDIF
 70
70
  9
$TILEMODE
 70
1
  9
$MAXACTVP
 70
64
  9
$PINSBASE
 10
0.0
 20
0.0
 30
0.0
  9
$PLIMCHECK
 70
0
  9
$PEXTMIN
 10
1e+20
 20
1e+20
 30
1e+20
  9
$PEXTMAX
 10
-1e+20
 20
-1e+20
 30
-1e+20
  9
$PLIMMIN
 10
0.0
 20
0.0
  9
$PLIMMAX
 10
420.0
 20
297.0
  9
$UNITMODE
 70
0
  9
$VISRETAIN
 70
1
  9
$PLINEGEN
 70
0
  9
$PSLTSCALE
 70
1
  9
$TREEDEPTH
 70
3020
  9
$CMLSTYLE
  2
Standard
  9
$CMLJUST
 70
0
  9
$CMLSCALE
 40
20.0
  9
$PROXYGRAPHICS
 70
1
  9
$MEASUREMENT
 70
1
  9
$CELWEIGHT
370
-1
  9
$ENDCAPS
280
0
  9
$JOINSTYLE
280
0
  9
$LWDISPLAY
290
0
  9
$INSUNITS
 70
6
  9
$HYPERLINKBASE
  1

  9
$STYLESHEET
  1

  9
$XEDIT
290
1
  9
$CEPSNTYPE
380
0
  9
$PSTYLEMODE
290
1
  9
$FINGERPRINTGUID
  2
{FEEEA674-B031-4864-8489-071ED8C1AA97}
  9
$VERSIONGUID
  2
{40414BA0-8DD1-4427-A771-39287A3BD7B3}
  9
$EXTNAMES
290
1
  9
$PSVPSCALE
 40
0.0
  9
$OLESTARTUP
290
0
  9
$SORTENTS
280
127
  9
$INDEXCTL
280
0
  9
$HIDETEXT
280
1
  9
$XCLIPFRAME
280
1
  9
$HALOGAP
280
0
  9
$OBSCOLOR
 70
257
  9
$OBSLTYPE
280
0
  9
$INTERSECTIONDISPLAY
280
0
  9
$INTERSECTIONCOLOR
 70
257
  9
$DIMASSOC
280
2
  9
$PROJECTNAME
  1

  9
$CAMERADISPLAY
290
0
  9
$LENSLENGTH
 40
50.0
  9
$CAMERAHEIGHT
 40
0.0
  9
$STEPSPERSEC
 40
24.0
  9
$STEPSIZE
 40
100.0
  9
$3DDWFPREC
 40
2.0
  9
$PSOLWIDTH
 40
0.005
  9
$PSOLHEIGHT
 40
0.08
  9
$LOFTANG1
 40
1.570796326795
  9
$LOFTANG2
 40
1.570796326795
  9
$LOFTMAG1
 40
0.0
  9
$LOFTMAG2
 40
0.0
  9
$LOFTPARAM
 70
7
  9
$LOFTNORMALS
280
1
  9
$LATITUDE
 40
37.795
  9
$LONGITUDE
 40
-122.394
  9
$NORTHDIRECTION
 40
0.0
  9
$TIMEZONE
 70
-8000
  9
$LIGHTGLYPHDISPLAY
280
1
  9
$TILEMODELIGHTSYNCH
280
1
  9
$CMATERIAL
347
20
  9
$SOLIDHIST
280
0
  9
$SHOWHIST
280
1
  9
$DWFFRAME
280
2
  9
$DGNFRAME
280
2
  9
$REALWORLDSCALE
290
1
  9
$INTERFERECOLOR
 62
256
  9
$CSHADOW
280
0
  9
$SHADOWPLANELOCATION
 40
0.0
  0
ENDSEC
  0
SECTION
  2
CLASSES
  0
CLASS
  1
ACDBDICTIONARYWDFLT
  2
AcDbDictionaryWithDefault
  3
ObjectDBX Classes
 90
0
 91
0
280
0
281
0
  0
CLASS
  1
SUN
  2
AcDbSun
  3
SCENEOE
 90
1153
 91
0
280
0
281
0
  0
CLASS
  1
VISUALSTYLE
  2
AcDbVisualStyle
  3
ObjectDBX Classes
 90
4095
 91
0
280
0
281
0
  0
CLASS
  1
MATERIAL
  2
AcDbMaterial
  3
ObjectDBX Classes
 90
1153
 91
0
280
0
281
0
  0
CLASS
  1
SCALE
  2
AcDbScale
  3
ObjectDBX Classes
 90
1153
 91
0
280
0
281
0
  0
CLASS
  1
TABLESTYLE
  2
AcDbTableStyle
  3
ObjectDBX Classes
 90
4095
 91
0
280
0
281
0
  0
CLASS
  1
MLEADERSTYLE
  2
AcDbMLeaderStyle
  3
ACDB_MLEADERSTYLE_CLASS
 90
4095
 91
0
280
0
281
0
  0
CLASS
  1
DICTIONARYVAR
  2
AcDbDictionaryVar
  3
ObjectDBX Classes
 90
0
 91
0
280
0
281
0
  0
CLASS
  1
CELLSTYLEMAP
  2
AcDbCellStyleMap
  3
ObjectDBX Classes
 90
1152
 91
0
280
0
281
0
  0
CLASS
  1
MENTALRAYRENDERSETTINGS
  2
AcDbMentalRayRenderSettings
  3
SCENEOE
 90
1024
 91
0
280
0
281
0
  0
CLASS
  1
ACDBDETAILVIEWSTYLE
  2
AcDbDetailViewStyle
  3
ObjectDBX Classes
 90
1025
 91
0
280
0
281
0
  0
CLASS
  1
ACDBSECTIONVIEWSTYLE
  2
AcDbSectionViewStyle
  3
ObjectDBX Classes
 90
1025
 91
0
280
0
281
0
  0
CLASS
  1
RASTERVARIABLES
  2
AcDbRasterVariables
  3
ISM
 90
0
 91
0
280
0
281
0
  0
CLASS
  1
ACDBPLACEHOLDER
  2
AcDbPlaceHolder
  3
ObjectDBX Classes
 90
0
 91
0
280
0
281
0
  0
CLASS
  1
LAYOUT
  2
AcDbLayout
  3
ObjectDBX Classes
 90
0
 91
0
280
0
281
0
  0
ENDSEC
  0
SECTION
  2
TABLES
  0
TABLE
  2
VPORT
  5
8
330
0
100
AcDbSymbolTable
 70
1
  0
VPORT
  5
23
330
8
100
AcDbSymbolTableRecord
100
AcDbViewportTableRecord
  2
*Active
 70
0
 10
0.0
 20
0.0
 11
1.0
 21
1.0
 12
0.0
 22
0.0
 13
0.0
 23
0.0
 14
0.5
 24
0.5
 15
0.5
 25
0.5
 16
0.0
 26
0.0
 36
1.0
 17
0.0
 27
0.0
 37
0.0
 40
1000.0
 41
1.34
 42
50.0
 43
0.0
 44
0.0
 50
0.0
 51
0.0
 71
0
 72
1000
 73
1
 74
3
 75
0
 76
0
 77
0
 78
0
281
0
 65
0
146
0.0
  0
ENDTAB
  0
TABLE
  2
LTYPE
  5
2
330
0
100
AcDbSymbolTable
 70
3
  0
LTYPE
  5
24
330
2
100
AcDbSymbolTableRecord
100
AcDbLinetypeTableRecord
  2
ByBlock
 70
0
  3

 72
65
 73
0
 40
0.0
  0
LTYPE
  5
25
330
2
100
AcDbSymbolTableRecord
100
AcDbLinetypeTableRecord
  2
ByLayer
 70
0
  3

 72
65
 73
0
 40
0.0
  0
LTYPE
  5
26
330
2
100
AcDbSymbolTableRecord
100
AcDbLinetypeTableRecord
  2
Continuous
 70
0
  3

 72
65
 73
0
 40
0.0
  0
ENDTAB
  0
TABLE
  2
LAYER
  5
1
330
0
100
AcDbSymbolTable
 70
12
  0
LAYER
  5
27
330
1
100
AcDbSymbolTableRecord
100
AcDbLayerTableRecord
  2
0
 70
0
 62
7
  6
Continuous
370
-3
390
13
347
21
  0
LAYER
  5
28
330
1
100
AcDbSymbolTableRecord
100
AcDbLayerTableRecord
  2
Defpoints
 70
0
 62
7
  6
Continuous
290
0
370
-3
390
13
347
21
  0
LAYER
  5
2F
330
1
100
AcDbSymbolTableRecord
100
AcDbLayerTableRecord
  2
PROFILE_LINES
 70
0
 62
142
420
2062260
  6
Continuous
370
-3
390
13
347
21
  0
LAYER
  5
34
330
1
100
AcDbSymbolTableRecord
100
AcDbLayerTableRecord
  2
MAX_DEPTH
 70
0
 62
7
420
0
  6
Continuous
370
-3
390
13
347
21
  0
LAYER
  5
98
330
1
100
AcDbSymbolTableRecord
100
AcDbLayerTableRecord
  2
SLICES
 70
0
 62
7
420
0
  6
Continuous
370
-3
390
13
347
21
  0
LAYER
  5
D9
330
1
100
AcDbSymbolTableRecord
100
AcDbLayerTableRecord
  2
FAILURE_SURFACE
 70
0
 62
7
420
0
  6
Continuous
370
-3
390
13
347
21
  0
LAYER
  5
DB
330
1
100
AcDbSymbolTableRecord
100
AcDbLayerTableRecord
  2
PIEZO
 70
0
 62
5
420
255
  6
Continuous
370
-3
390
13
347
21
  0
LAYER
  5
DD
330
1
100
AcDbSymbolTableRecord
100
AcDbLayerTableRecord
  2
LINES
 70
0
 62
5
420
255
  6
Continuous
370
-3
390
13
347
21
  0
LAYER
  5
DF
330
1
100
AcDbSymbolTableRecord
100
AcDbLayerTableRecord
  2
DLOADS
 70
0
 62
214
420
8388736
  6
Continuous
370
-3
390
13
347
21
  0
LAYER
  5
E4
330
1
100
AcDbSymbolTableRecord
100
AcDbLayerTableRecord
  2
LINE_OF_THRUST
 70
0
 62
1
420
16711680
  6
Continuous
370
-3
390
13
347
21
  0
LAYER
  5
105
330
1
100
AcDbSymbolTableRecord
100
AcDbLayerTableRecord
  2
EFF_NORMAL_STRESS
 70
0
 62
93
420
3329330
  6
Continuous
370
-3
390
13
347
21
  0
LAYER
  5
107
330
1
100
AcDbSymbolTableRecord
100
AcDbLayerTableRecord
  2
PORE_PRESSURE
 70
0
 62
5
420
255
  6
Continuous
370
-3
390
13
347
21
  0
ENDTAB
  0
TABLE
  2
STYLE
  5
5
330
0
100
AcDbSymbolTable
 70
1
  0
STYLE
  5
29
330
5
100
AcDbSymbolTableRecord
100
AcDbTextStyleTableRecord
  2
Standard
 70
0
 40
0.0
 41
1.0
 50
0.0
 71
0
 42
2.5
  3
txt
  4

  0
ENDTAB
  0
TABLE
  2
VIEW
  5
7
330
0
100
AcDbSymbolTable
 70
0
  0
ENDTAB
  0
TABLE
  2
UCS
  5
6
330
0
100
AcDbSymbolTable
 70
0
  0
ENDTAB
  0
TABLE
  2
APPID
  5
3
330
0
100
AcDbSymbolTable
 70
3
  0
APPID
  5
2A
330
3
100
AcDbSymbolTableRecord
100
AcDbRegAppTableRecord
  2
ACAD
 70
0
  0
APPID
  5
147
330
3
100
AcDbSymbolTableRecord
100
AcDbRegAppTableRecord
  2
HATCHBACKGROUNDCOLOR
 70
0
  0
APPID
  5
148
330
3
100
AcDbSymbolTableRecord
100
AcDbRegAppTableRecord
  2
EZDXF
 70
0
  0
ENDTAB
  0
TABLE
  2
DIMSTYLE
  5
4
330
0
100
AcDbSymbolTable
 70
1
100
AcDbDimStyleTable
  0
DIMSTYLE
105
2B
330
4
100
AcDbSymbolTableRecord
100
AcDbDimStyleTableRecord
  2
Standard
 70
0
 40
1.0
 41
2.5
 42
0.625
 43
3.75
 44
1.25
 45
0.0
 46
0.0
 47
0.0
 48
0.0
 49
2.5
140
2.5
141
2.5
142
0.0
143
0.03937007874
144
1.0
145
0.0
146
1.0
147
0.625
148
0.0
 69
0
 70
0
 71
0
 72
0
 73
0
 74
0
 75
0
 76
0
 77
1
 78
8
 79
3
170
0
171
3
172
1
173
0
174
0
175
0
176
0
177
0
178
0
179
2
271
2
272
2
273
2
274
3
275
0
276
0
277
2
278
44
279
0
280
0
281
0
282
0
283
0
284
8
285
0
286
0
288
0
289
3
290
0
371
-2
372
-2
  0
ENDTAB
  0
TABLE
  2
BLOCK_RECORD
  5
9
330
0
100
AcDbSymbolTable
 70
2
  0
BLOCK_RECORD
  5
17
330
9
100
AcDbSymbolTableRecord
100
AcDbBlockTableRecord
  2
*Model_Space
340
1A
 70
0
280
1
281
0
  0
BLOCK_RECORD
  5
1B
330
9
100
AcDbSymbolTableRecord
100
AcDbBlockTableRecord
  2
*Paper_Space
340
1E
 70
0
280
1
281
0
  0
ENDTAB
  0
ENDSEC
  0
SECTION
  2
BLOCKS
  0
BLOCK
  5
18
330
17
100
AcDbEntity
  8
0
100
AcDbBlockBegin
  2
*Model_Space
 70
0
 10
0.0
 20
0.0
 30
0.0
  3
*Model_Space
  1

  0
ENDBLK
  5
19
330
17
100
AcDbEntity
  8
0
100
AcDbBlockEnd
  0
BLOCK
  5
1C
330
1B
100
AcDbEntity
  8
0
100
AcDbBlockBegin
  2
*Paper_Space
 70
0
 10
0.0
 20
0.0
 30
0.0
  3
*Paper_Space
  1

  0
ENDBLK
  5
1D
330
1B
100
AcDbEntity
  8
0
100
AcDbBlockEnd
  0
ENDSEC
  0
SECTION
  2
ENTITIES
  0
LWPOLYLINE
  5
30
330
17
100
AcDbEntity
  8
PROFILE_LINES
100
AcDbPolyline
 90
4
 70
0
 10
0.0
 20
227.0
 10
270.0
 20
317.0
 10
320.0
 20
317.0
 10
590.0
 20
227.0
  0
LWPOLYLINE
  5
31
330
17
100
AcDbEntity
  8
PROFILE_LINES
100
AcDbPolyline
 90
4
 70
0
 10
240.0
 20
227.0
 10
280.0
 20
307.0
 10
310.0
 20
307.0
 10
350.0
 20
227.0
  0
LWPOLYLINE
  5
32
330
17
100
AcDbEntity
  8
PROFILE_LINES
100
AcDbPolyline
 90
2
 70
0
 10
-150.0
 20
227.0
 10
740.0
 20
227.0
  0
LWPOLYLINE
  5
33
330
17
100
AcDbEntity
  8
PROFILE_LINES
100
AcDbPolyline
 90
2
 70
0
 10
-150.0
 20
197.0
 10
740.0
 20
197.0
  0
LWPOLYLINE
  5
35
330
17
100
AcDbEntity
  8
MAX_DEPTH
100
AcDbPolyline
 90
2
 70
0
 10
-141.1
 20
182.0
 10
-146.6625
 20
172.36546738289812
  0
LWPOLYLINE
  5
36
330
17
100
AcDbEntity
  8
MAX_DEPTH
100
AcDbPolyline
 90
2
 70
0
 10
-132.2
 20
182.0
 10
-137.7625
 20
172.36546738289812
  0
LWPOLYLINE
  5
37
330
17
100
AcDbEntity
  8
MAX_DEPTH
100
AcDbPolyline
 90
2
 70
0
 10
-123.29999999999998
 20
182.0
 10
-128.86249999999998
 20
172.36546738289812
  0
LWPOLYLINE
  5
38
330
17
100
AcDbEntity
  8
MAX_DEPTH
100
AcDbPolyline
 90
2
 70
0
 10
-114.39999999999998
 20
182.0
 10
-119.96249999999998
 20
172.36546738289812
  0
LWPOLYLINE
  5
39
330
17
100
AcDbEntity
  8
MAX_DEPTH
100
AcDbPolyline
 90
2
 70
0
 10
-105.49999999999997
 20
182.0
 10
-111.06249999999997
 20
172.36546738289812
  0
LWPOLYLINE
  5
3A
330
17
100
AcDbEntity
  8
MAX_DEPTH
100
AcDbPolyline
 90
2
 70
0
 10
-96.59999999999997
 20
182.0
 10
-102.16249999999997
 20
172.36546738289812
  0
LWPOLYLINE
  5
3B
330
17
100
AcDbEntity
  8
MAX_DEPTH
100
AcDbPolyline
 90
2
 70
0
 10
-87.69999999999996
 20
182.0
 10
-93.26249999999996
 20
172.36546738289812
  0
LWPOLYLINE
  5
3C
330
17
100
AcDbEntity
  8
MAX_DEPTH
100
AcDbPolyline
 90
2
 70
0
 10
-78.79999999999995
 20
182.0
 10
-84.36249999999995
 20
172.36546738289812
  0
LWPOLYLINE
  5
3D
330
17
100
AcDbEntity
  8
MAX_DEPTH
100
AcDbPolyline
 90
2
 70
0
 10
-69.89999999999995
 20
182.0
 10
-75.46249999999995
 20
172.36546738289812
  0
LWPOLYLINE
  5
3E
330
17
100
AcDbEntity
  8
MAX_DEPTH
100
AcDbPolyline
 90
2
 70
0
 10
-60.99999999999994
 20
182.0
 10
-66.56249999999994
 20
172.36546738289812
  0
LWPOLYLINE
  5
3F
330
17
100
AcDbEntity
  8
MAX_DEPTH
100
AcDbPolyline
 90
2
 70
0
 10
-52.09999999999994
 20
182.0
 10
-57.66249999999994
 20
172.36546738289812
  0
LWPOLYLINE
  5
40
330
17
100
AcDbEntity
  8
MAX_DEPTH
100
AcDbPolyline
 90
2
 70
0
 10
-43.19999999999993
 20
182.0
 10
-48.76249999999993
 20
172.36546738289812
  0
LWPOLYLINE
  5
41
330
17
100
AcDbEntity
  8
MAX_DEPTH
100
AcDbPolyline
 90
2
 70
0
 10
-34.299999999999926
 20
182.0
 10
-39.862499999999926
 20
172.36546738289812
  0
LWPOLYLINE
  5
42
330
17
100
AcDbEntity
  8
MAX_DEPTH
100
AcDbPolyline
 90
2
 70
0
 10
-25.39999999999992
 20
182.0
 10
-30.96249999999992
 20
172.36546738289812
  0
LWPOLYLINE
  5
43
330
17
100
AcDbEntity
  8
MAX_DEPTH
100
AcDbPolyline
 90
2
 70
0
 10
-16.499999999999915
 20
182.0
 10
-22.062499999999915
 20
172.36546738289812
  0
LWPOLYLINE
  5
44
330
17
100
AcDbEntity
  8
MAX_DEPTH
100
AcDbPolyline
 90
2
 70
0
 10
-7.599999999999909
 20
182.0
 10
-13.162499999999909
 20
172.36546738289812
  0
LWPOLYLINE
  5
45
330
17
100
AcDbEntity
  8
MAX_DEPTH
100
AcDbPolyline
 90
2
 70
0
 10
1.3000000000000966
 20
182.0
 10
-4.262499999999904
 20
172.36546738289812
  0
LWPOLYLINE
  5
46
330
17
100
AcDbEntity
  8
MAX_DEPTH
100
AcDbPolyline
 90
2
 70
0
 10
10.200000000000102
 20
182.0
 10
4.637500000000101
 20
172.36546738289812
  0
LWPOLYLINE
  5
47
330
17
100
AcDbEntity
  8
MAX_DEPTH
100
AcDbPolyline
 90
2
 70
0
 10
19.100000000000108
 20
182.0
 10
13.537500000000108
 20
172.36546738289812
  0
LWPOLYLINE
  5
48
330
17
100
AcDbEntity
  8
MAX_DEPTH
100
AcDbPolyline
 90
2
 70
0
 10
28.000000000000114
 20
182.0
 10
22.437500000000114
 20
172.36546738289812
  0
LWPOLYLINE
  5
49
330
17
100
AcDbEntity
  8
MAX_DEPTH
100
AcDbPolyline
 90
2
 70
0
 10
36.90000000000012
 20
182.0
 10
31.33750000000012
 20
172.36546738289812
  0
LWPOLYLINE
  5
4A
330
17
100
AcDbEntity
  8
MAX_DEPTH
100
AcDbPolyline
 90
2
 70
0
 10
45.800000000000125
 20
182.0
 10
40.237500000000125
 20
172.36546738289812
  0
LWPOLYLINE
  5
4B
330
17
100
AcDbEntity
  8
MAX_DEPTH
100
AcDbPolyline
 90
2
 70
0
 10
54.70000000000013
 20
182.0
 10
49.13750000000013
 20
172.36546738289812
  0
LWPOLYLINE
  5
4C
330
17
100
AcDbEntity
  8
MAX_DEPTH
100
AcDbPolyline
 90
2
 70
0
 10
63.600000000000136
 20
182.0
 10
58.037500000000136
 20
172.36546738289812
  0
LWPOLYLINE
  5
4D
330
17
100
AcDbEntity
  8
MAX_DEPTH
100
AcDbPolyline
 90
2
 70
0
 10
72.50000000000014
 20
182.0
 10
66.93750000000014
 20
172.36546738289812
  0
LWPOLYLINE
  5
4E
330
17
100
AcDbEntity
  8
MAX_DEPTH
100
AcDbPolyline
 90
2
 70
0
 10
81.40000000000015
 20
182.0
 10
75.83750000000015
 20
172.36546738289812
  0
LWPOLYLINE
  5
4F
330
17
100
AcDbEntity
  8
MAX_DEPTH
100
AcDbPolyline
 90
2
 70
0
 10
90.30000000000015
 20
182.0
 10
84.73750000000015
 20
172.36546738289812
  0
LWPOLYLINE
  5
50
330
17
100
AcDbEntity
  8
MAX_DEPTH
100
AcDbPolyline
 90
2
 70
0
 10
99.20000000000016
 20
182.0
 10
93.63750000000016
 20
172.36546738289812
  0
LWPOLYLINE
  5
51
330
17
100
AcDbEntity
  8
MAX_DEPTH
100
AcDbPolyline
 90
2
 70
0
 10
108.10000000000016
 20
182.0
 10
102.53750000000016
 20
172.36546738289812
  0
LWPOLYLINE
  5
52
330
17
100
AcDbEntity
  8
MAX_DEPTH
100
AcDbPolyline
 90
2
 70
0
 10
117.00000000000017
 20
182.0
 10
111.43750000000017
 20
172.36546738289812
  0
LWPOLYLINE
  5
53
330
17
100
AcDbEntity
  8
MAX_DEPTH
100
AcDbPolyline
 90
2
 70
0
 10
125.90000000000018
 20
182.0
 10
120.33750000000018
 20
172.36546738289812
  0
LWPOLYLINE
  5
54
330
17
100
AcDbEntity
  8
MAX_DEPTH
100
AcDbPolyline
 90
2
 70
0
 10
134.80000000000018
 20
182.0
 10
129.23750000000018
 20
172.36546738289812
  0
LWPOLYLINE
  5
55
330
17
100
AcDbEntity
  8
MAX_DEPTH
100
AcDbPolyline
 90
2
 70
0
 10
143.7000000000002
 20
182.0
 10
138.1375000000002
 20
172.36546738289812
  0
LWPOLYLINE
  5
56
330
17
100
AcDbEntity
  8
MAX_DEPTH
100
AcDbPolyline
 90
2
 70
0
 10
152.6000000000002
 20
182.0
 10
147.0375000000002
 20
172.36546738289812
  0
LWPOLYLINE
  5
57
330
17
100
AcDbEntity
  8
MAX_DEPTH
100
AcDbPolyline
 90
2
 70
0
 10
161.5000000000002
 20
182.0
 10
155.9375000000002
 20
172.36546738289812
  0
LWPOLYLINE
  5
58
330
17
100
AcDbEntity
  8
MAX_DEPTH
100
AcDbPolyline
 90
2
 70
0
 10
170.4000000000002
 20
182.0
 10
164.8375000000002
 20
172.36546738289812
  0
LWPOLYLINE
  5
59
330
17
100
AcDbEntity
  8
MAX_DEPTH
100
AcDbPolyline
 90
2
 70
0
 10
179.3000000000002
 20
182.0
 10
173.7375000000002
 20
172.36546738289812
  0
LWPOLYLINE
  5
5A
330
17
100
AcDbEntity
  8
MAX_DEPTH
100
AcDbPolyline
 90
2
 70
0
 10
188.20000000000022
 20
182.0
 10
182.63750000000022
 20
172.36546738289812
  0
LWPOLYLINE
  5
5B
330
17
100
AcDbEntity
  8
MAX_DEPTH
100
AcDbPolyline
 90
2
 70
0
 10
197.10000000000022
 20
182.0
 10
191.53750000000022
 20
172.36546738289812
  0
LWPOLYLINE
  5
5C
330
17
100
AcDbEntity
  8
MAX_DEPTH
100
AcDbPolyline
 90
2
 70
0
 10
206.00000000000023
 20
182.0
 10
200.43750000000023
 20
172.36546738289812
  0
LWPOLYLINE
  5
5D
330
17
100
AcDbEntity
  8
MAX_DEPTH
100
AcDbPolyline
 90
2
 70
0
 10
214.90000000000023
 20
182.0
 10
209.33750000000023
 20
172.36546738289812
  0
LWPOLYLINE
  5
5E
330
17
100
AcDbEntity
  8
MAX_DEPTH
100
AcDbPolyline
 90
2
 70
0
 10
223.80000000000024
 20
182.0
 10
218.23750000000024
 20
172.36546738289812
  0
LWPOLYLINE
  5
5F
330
17
100
AcDbEntity
  8
MAX_DEPTH
100
AcDbPolyline
 90
2
 70
0
 10
232.70000000000024
 20
182.0
 10
227.13750000000024
 20
172.36546738289812
  0
LWPOLYLINE
  5
60
330
17
100
AcDbEntity
  8
MAX_DEPTH
100
AcDbPolyline
 90
2
 70
0
 10
241.60000000000025
 20
182.0
 10
236.03750000000025
 20
172.36546738289812
  0
LWPOLYLINE
  5
61
330
17
100
AcDbEntity
  8
MAX_DEPTH
100
AcDbPolyline
 90
2
 70
0
 10
250.50000000000026
 20
182.0
 10
244.93750000000026
 20
172.36546738289812
  0
LWPOLYLINE
  5
62
330
17
100
AcDbEntity
  8
MAX_DEPTH
100
AcDbPolyline
 90
2
 70
0
 10
259.40000000000026
 20
182.0
 10
253.83750000000026
 20
172.36546738289812
  0
LWPOLYLINE
  5
63
330
17
100
AcDbEntity
  8
MAX_DEPTH
100
AcDbPolyline
 90
2
 70
0
 10
268.3000000000003
 20
182.0
 10
262.7375000000003
 20
172.36546738289812
  0
LWPOLYLINE
  5
64
330
17
100
AcDbEntity
  8
MAX_DEPTH
100
AcDbPolyline
 90
2
 70
0
 10
277.2000000000003
 20
182.0
 10
271.6375000000003
 20
172.36546738289812
  0
LWPOLYLINE
  5
65
330
17
100
AcDbEntity
  8
MAX_DEPTH
100
AcDbPolyline
 90
2
 70
0
 10
286.10000000000025
 20
182.0
 10
280.53750000000025
 20
172.36546738289812
  0
LWPOLYLINE
  5
66
330
17
100
AcDbEntity
  8
MAX_DEPTH
100
AcDbPolyline
 90
2
 70
0
 10
295.0000000000003
 20
182.0
 10
289.4375000000003
 20
172.36546738289812
  0
LWPOLYLINE
  5
67
330
17
100
AcDbEntity
  8
MAX_DEPTH
100
AcDbPolyline
 90
2
 70
0
 10
303.9000000000003
 20
182.0
 10
298.3375000000003
 20
172.36546738289812
  0
LWPOLYLINE
  5
68
330
17
100
AcDbEntity
  8
MAX_DEPTH
100
AcDbPolyline
 90
2
 70
0
 10
312.8000000000003
 20
182.0
 10
307.2375000000003
 20
172.36546738289812
  0
LWPOLYLINE
  5
69
330
17
100
AcDbEntity
  8
MAX_DEPTH
100
AcDbPolyline
 90
2
 70
0
 10
321.7000000000003
 20
182.0
 10
316.1375000000003
 20
172.36546738289812
  0
LWPOLYLINE
  5
6A
330
17
100
AcDbEntity
  8
MAX_DEPTH
100
AcDbPolyline
 90
2
 70
0
 10
330.6000000000003
 20
182.0
 10
325.0375000000003
 20
172.36546738289812
  0
LWPOLYLINE
  5
6B
330
17
100
AcDbEntity
  8
MAX_DEPTH
100
AcDbPolyline
 90
2
 70
0
 10
339.50000000000034
 20
182.0
 10
333.93750000000034
 20
172.36546738289812
  0
LWPOLYLINE
  5
6C
330
17
100
AcDbEntity
  8
MAX_DEPTH
100
AcDbPolyline
 90
2
 70
0
 10
348.4000000000003
 20
182.0
 10
342.8375000000003
 20
172.36546738289812
  0
LWPOLYLINE
  5
6D
330
17
100
AcDbEntity
  8
MAX_DEPTH
100
AcDbPolyline
 90
2
 70
0
 10
357.3000000000003
 20
182.0
 10
351.7375000000003
 20
172.36546738289812
  0
LWPOLYLINE
  5
6E
330
17
100
AcDbEntity
  8
MAX_DEPTH
100
AcDbPolyline
 90
2
 70
0
 10
366.20000000000033
 20
182.0
 10
360.63750000000033
 20
172.36546738289812
  0
LWPOLYLINE
  5
6F
330
17
100
AcDbEntity
  8
MAX_DEPTH
100
AcDbPolyline
 90
2
 70
0
 10
375.10000000000036
 20
182.0
 10
369.53750000000036
 20
172.36546738289812
  0
LWPOLYLINE
  5
70
330
17
100
AcDbEntity
  8
MAX_DEPTH
100
AcDbPolyline
 90
2
 70
0
 10
384.00000000000034
 20
182.0
 10
378.43750000000034
 20
172.36546738289812
  0
LWPOLYLINE
  5
71
330
17
100
AcDbEntity
  8
MAX_DEPTH
100
AcDbPolyline
 90
2
 70
0
 10
392.9000000000003
 20
182.0
 10
387.3375000000003
 20
172.36546738289812
  0
LWPOLYLINE
  5
72
330
17
100
AcDbEntity
  8
MAX_DEPTH
100
AcDbPolyline
 90
2
 70
0
 10
401.80000000000035
 20
182.0
 10
396.23750000000035
 20
172.36546738289812
  0
LWPOLYLINE
  5
73
330
17
100
AcDbEntity
  8
MAX_DEPTH
100
AcDbPolyline
 90
2
 70
0
 10
410.7000000000004
 20
182.0
 10
405.1375000000004
 20
172.36546738289812
  0
LWPOLYLINE
  5
74
330
17
100
AcDbEntity
  8
MAX_DEPTH
100
AcDbPolyline
 90
2
 70
0
 10
419.60000000000036
 20
182.0
 10
414.03750000000036
 20
172.36546738289812
  0
LWPOLYLINE
  5
75
330
17
100
AcDbEntity
  8
MAX_DEPTH
100
AcDbPolyline
 90
2
 70
0
 10
428.50000000000034
 20
182.0
 10
422.93750000000034
 20
172.36546738289812
  0
LWPOLYLINE
  5
76
330
17
100
AcDbEntity
  8
MAX_DEPTH
100
AcDbPolyline
 90
2
 70
0
 10
437.4000000000004
 20
182.0
 10
431.8375000000004
 20
172.36546738289812
  0
LWPOLYLINE
  5
77
330
17
100
AcDbEntity
  8
MAX_DEPTH
100
AcDbPolyline
 90
2
 70
0
 10
446.3000000000004
 20
182.0
 10
440.7375000000004
 20
172.36546738289812
  0
LWPOLYLINE
  5
78
330
17
100
AcDbEntity
  8
MAX_DEPTH
100
AcDbPolyline
 90
2
 70
0
 10
455.2000000000004
 20
182.0
 10
449.6375000000004
 20
172.36546738289812
  0
LWPOLYLINE
  5
79
330
17
100
AcDbEntity
  8
MAX_DEPTH
100
AcDbPolyline
 90
2
 70
0
 10
464.10000000000036
 20
182.0
 10
458.53750000000036
 20
172.36546738289812
  0
LWPOLYLINE
  5
7A
330
17
100
AcDbEntity
  8
MAX_DEPTH
100
AcDbPolyline
 90
2
 70
0
 10
473.0000000000004
 20
182.0
 10
467.4375000000004
 20
172.36546738289812
  0
LWPOLYLINE
  5
7B
330
17
100
AcDbEntity
  8
MAX_DEPTH
100
AcDbPolyline
 90
2
 70
0
 10
481.90000000000043
 20
182.0
 10
476.33750000000043
 20
172.36546738289812
  0
LWPOLYLINE
  5
7C
330
17
100
AcDbEntity
  8
MAX_DEPTH
100
AcDbPolyline
 90
2
 70
0
 10
490.8000000000004
 20
182.0
 10
485.2375000000004
 20
172.36546738289812
  0
LWPOLYLINE
  5
7D
330
17
100
AcDbEntity
  8
MAX_DEPTH
100
AcDbPolyline
 90
2
 70
0
 10
499.7000000000004
 20
182.0
 10
494.1375000000004
 20
172.36546738289812
  0
LWPOLYLINE
  5
7E
330
17
100
AcDbEntity
  8
MAX_DEPTH
100
AcDbPolyline
 90
2
 70
0
 10
508.6000000000004
 20
182.0
 10
503.0375000000004
 20
172.36546738289812
  0
LWPOLYLINE
  5
7F
330
17
100
AcDbEntity
  8
MAX_DEPTH
100
AcDbPolyline
 90
2
 70
0
 10
517.5000000000005
 20
182.0
 10
511.93750000000045
 20
172.36546738289812
  0
LWPOLYLINE
  5
80
330
17
100
AcDbEntity
  8
MAX_DEPTH
100
AcDbPolyline
 90
2
 70
0
 10
526.4000000000004
 20
182.0
 10
520.8375000000004
 20
172.36546738289812
  0
LWPOLYLINE
  5
81
330
17
100
AcDbEntity
  8
MAX_DEPTH
100
AcDbPolyline
 90
2
 70
0
 10
535.3000000000004
 20
182.0
 10
529.7375000000004
 20
172.36546738289812
  0
LWPOLYLINE
  5
82
330
17
100
AcDbEntity
  8
MAX_DEPTH
100
AcDbPolyline
 90
2
 70
0
 10
544.2000000000005
 20
182.0
 10
538.6375000000005
 20
172.36546738289812
  0
LWPOLYLINE
  5
83
330
17
100
AcDbEntity
  8
MAX_DEPTH
100
AcDbPolyline
 90
2
 70
0
 10
553.1000000000005
 20
182.0
 10
547.5375000000005
 20
172.36546738289812
  0
LWPOLYLINE
  5
84
330
17
100
AcDbEntity
  8
MAX_DEPTH
100
AcDbPolyline
 90
2
 70
0
 10
562.0000000000005
 20
182.0
 10
556.4375000000005
 20
172.36546738289812
  0
LWPOLYLINE
  5
85
330
17
100
AcDbEntity
  8
MAX_DEPTH
100
AcDbPolyline
 90
2
 70
0
 10
570.9000000000004
 20
182.0
 10
565.3375000000004
 20
172.36546738289812
  0
LWPOLYLINE
  5
86
330
17
100
AcDbEntity
  8
MAX_DEPTH
100
AcDbPolyline
 90
2
 70
0
 10
579.8000000000004
 20
182.0
 10
574.2375000000004
 20
172.36546738289812
  0
LWPOLYLINE
  5
87
330
17
100
AcDbEntity
  8
MAX_DEPTH
100
AcDbPolyline
 90
2
 70
0
 10
588.7000000000005
 20
182.0
 10
583.1375000000005
 20
172.36546738289812
  0
LWPOLYLINE
  5
88
330
17
100
AcDbEntity
  8
MAX_DEPTH
100
AcDbPolyline
 90
2
 70
0
 10
597.6000000000005
 20
182.0
 10
592.0375000000005
 20
172.36546738289812
  0
LWPOLYLINE
  5
89
330
17
100
AcDbEntity
  8
MAX_DEPTH
100
AcDbPolyline
 90
2
 70
0
 10
606.5000000000005
 20
182.0
 10
600.9375000000005
 20
172.36546738289812
  0
LWPOLYLINE
  5
8A
330
17
100
AcDbEntity
  8
MAX_DEPTH
100
AcDbPolyline
 90
2
 70
0
 10
615.4000000000005
 20
182.0
 10
609.8375000000005
 20
172.36546738289812
  0
LWPOLYLINE
  5
8B
330
17
100
AcDbEntity
  8
MAX_DEPTH
100
AcDbPolyline
 90
2
 70
0
 10
624.3000000000005
 20
182.0
 10
618.7375000000005
 20
172.36546738289812
  0
LWPOLYLINE
  5
8C
330
17
100
AcDbEntity
  8
MAX_DEPTH
100
AcDbPolyline
 90
2
 70
0
 10
633.2000000000005
 20
182.0
 10
627.6375000000005
 20
172.36546738289812
  0
LWPOLYLINE
  5
8D
330
17
100
AcDbEntity
  8
MAX_DEPTH
100
AcDbPolyline
 90
2
 70
0
 10
642.1000000000005
 20
182.0
 10
636.5375000000005
 20
172.36546738289812
  0
LWPOLYLINE
  5
8E
330
17
100
AcDbEntity
  8
MAX_DEPTH
100
AcDbPolyline
 90
2
 70
0
 10
651.0000000000005
 20
182.0
 10
645.4375000000005
 20
172.36546738289812
  0
LWPOLYLINE
  5
8F
330
17
100
AcDbEntity
  8
MAX_DEPTH
100
AcDbPolyline
 90
2
 70
0
 10
659.9000000000005
 20
182.0
 10
654.3375000000005
 20
172.36546738289812
  0
LWPOLYLINE
  5
90
330
17
100
AcDbEntity
  8
MAX_DEPTH
100
AcDbPolyline
 90
2
 70
0
 10
668.8000000000005
 20
182.0
 10
663.2375000000005
 20
172.36546738289812
  0
LWPOLYLINE
  5
91
330
17
100
AcDbEntity
  8
MAX_DEPTH
100
AcDbPolyline
 90
2
 70
0
 10
677.7000000000005
 20
182.0
 10
672.1375000000005
 20
172.36546738289812
  0
LWPOLYLINE
  5
92
330
17
100
AcDbEntity
  8
MAX_DEPTH
100
AcDbPolyline
 90
2
 70
0
 10
686.6000000000006
 20
182.0
 10
681.0375000000006
 20
172.36546738289812
  0
LWPOLYLINE
  5
93
330
17
100
AcDbEntity
  8
MAX_DEPTH
100
AcDbPolyline
 90
2
 70
0
 10
695.5000000000006
 20
182.0
 10
689.9375000000006
 20
172.36546738289812
  0
LWPOLYLINE
  5
94
330
17
100
AcDbEntity
  8
MAX_DEPTH
100
AcDbPolyline
 90
2
 70
0
 10
704.4000000000005
 20
182.0
 10
698.8375000000005
 20
172.36546738289812
  0
LWPOLYLINE
  5
95
330
17
100
AcDbEntity
  8
MAX_DEPTH
100
AcDbPolyline
 90
2
 70
0
 10
713.3000000000005
 20
182.0
 10
707.7375000000005
 20
172.36546738289812
  0
LWPOLYLINE
  5
96
330
17
100
AcDbEntity
  8
MAX_DEPTH
100
AcDbPolyline
 90
2
 70
0
 10
722.2000000000005
 20
182.0
 10
716.6375000000005
 20
172.36546738289812
  0
LWPOLYLINE
  5
97
330
17
100
AcDbEntity
  8
MAX_DEPTH
100
AcDbPolyline
 90
2
 70
0
 10
731.1000000000006
 20
182.0
 10
725.5375000000006
 20
172.36546738289812
  0
LWPOLYLINE
  5
99
330
17
100
AcDbEntity
  8
SLICES
100
AcDbPolyline
 90
2
 70
0
 10
-24.818409545356275
 20
227.0
 10
-24.818409545356275
 20
227.0
  0
LWPOLYLINE
  5
9A
330
17
100
AcDbEntity
  8
SLICES
100
AcDbPolyline
 90
2
 70
0
 10
-24.80362223564009
 20
226.99429748560863
 10
-24.80362223564009
 20
227.0
  0
LWPOLYLINE
  5
9B
330
17
100
AcDbEntity
  8
SLICES
100
AcDbPolyline
 90
2
 70
0
 10
-24.80362223564009
 20
226.99429748560863
 10
-24.80362223564009
 20
227.0
  0
LWPOLYLINE
  5
9C
330
17
100
AcDbEntity
  8
SLICES
100
AcDbPolyline
 90
2
 70
0
 10
-12.401811117820046
 20
222.5432691106016
 10
-12.401811117820046
 20
227.0
  0
LWPOLYLINE
  5
9D
330
17
100
AcDbEntity
  8
SLICES
100
AcDbPolyline
 90
2
 70
0
 10
-12.401811117820046
 20
222.5432691106016
 10
-12.401811117820046
 20
227.0
  0
LWPOLYLINE
  5
9E
330
17
100
AcDbEntity
  8
SLICES
100
AcDbPolyline
 90
2
 70
0
 10
0.0
 20
218.73354862464492
 10
0.0
 20
227.0
  0
LWPOLYLINE
  5
9F
330
17
100
AcDbEntity
  8
SLICES
100
AcDbPolyline
 90
2
 70
0
 10
0.0
 20
218.73354862464492
 10
0.0
 20
227.0
  0
LWPOLYLINE
  5
A0
330
17
100
AcDbEntity
  8
SLICES
100
AcDbPolyline
 90
2
 70
0
 10
11.085089670977501
 20
215.84910653018142
 10
11.085089670977501
 20
230.69502989032583
  0
LWPOLYLINE
  5
A1
330
17
100
AcDbEntity
  8
SLICES
100
AcDbPolyline
 90
2
 70
0
 10
11.085089670977501
 20
215.84910653018142
 10
11.085089670977501
 20
230.69502989032583
  0
LWPOLYLINE
  5
A2
330
17
100
AcDbEntity
  8
SLICES
100
AcDbPolyline
 90
2
 70
0
 10
22.170179341955002
 20
213.4401390988241
 10
22.170179341955002
 20
234.39005978065165
  0
LWPOLYLINE
  5
A3
330
17
100
AcDbEntity
  8
SLICES
100
AcDbPolyline
 90
2
 70
0
 10
22.170179341955002
 20
213.4401390988241
 10
22.170179341955002
 20
234.39005978065165
  0
LWPOLYLINE
  5
A4
330
17
100
AcDbEntity
  8
SLICES
100
AcDbPolyline
 90
2
 70
0
 10
33.2552690129325
 20
211.4942696207442
 10
33.2552690129325
 20
238.0850896709775
  0
LWPOLYLINE
  5
A5
330
17
100
AcDbEntity
  8
SLICES
100
AcDbPolyline
 90
2
 70
0
 10
33.2552690129325
 20
211.4942696207442
 10
33.2552690129325
 20
238.0850896709775
  0
LWPOLYLINE
  5
A6
330
17
100
AcDbEntity
  8
SLICES
100
AcDbPolyline
 90
2
 70
0
 10
44.340358683910004
 20
210.0018130199714
 10
44.340358683910004
 20
241.78011956130334
  0
LWPOLYLINE
  5
A7
330
17
100
AcDbEntity
  8
SLICES
100
AcDbPolyline
 90
2
 70
0
 10
44.340358683910004
 20
210.0018130199714
 10
44.340358683910004
 20
241.78011956130334
  0
LWPOLYLINE
  5
A8
330
17
100
AcDbEntity
  8
SLICES
100
AcDbPolyline
 90
2
 70
0
 10
55.42544835488751
 20
208.95552351448612
 10
55.42544835488751
 20
245.47514945162916
  0
LWPOLYLINE
  5
A9
330
17
100
AcDbEntity
  8
SLICES
100
AcDbPolyline
 90
2
 70
0
 10
55.42544835488751
 20
208.95552351448612
 10
55.42544835488751
 20
245.47514945162916
  0
LWPOLYLINE
  5
AA
330
17
100
AcDbEntity
  8
SLICES
100
AcDbPolyline
 90
2
 70
0
 10
66.510538025865
 20
208.3504134033024
 10
66.510538025865
 20
249.170179341955
  0
LWPOLYLINE
  5
AB
330
17
100
AcDbEntity
  8
SLICES
100
AcDbPolyline
 90
2
 70
0
 10
66.510538025865
 20
208.3504134033024
 10
66.510538025865
 20
249.170179341955
  0
LWPOLYLINE
  5
AC
330
17
100
AcDbEntity
  8
SLICES
100
AcDbPolyline
 90
2
 70
0
 10
77.59562769684251
 20
208.18363205484303
 10
77.59562769684251
 20
252.86520923228085
  0
LWPOLYLINE
  5
AD
330
17
100
AcDbEntity
  8
SLICES
100
AcDbPolyline
 90
2
 70
0
 10
77.59562769684251
 20
208.18363205484303
 10
77.59562769684251
 20
252.86520923228085
  0
LWPOLYLINE
  5
AE
330
17
100
AcDbEntity
  8
SLICES
100
AcDbPolyline
 90
2
 70
0
 10
88.68071736782001
 20
208.45439810031075
 10
88.68071736782001
 20
256.5602391226067
  0
LWPOLYLINE
  5
AF
330
17
100
AcDbEntity
  8
SLICES
100
AcDbPolyline
 90
2
 70
0
 10
88.68071736782001
 20
208.45439810031075
 10
88.68071736782001
 20
256.5602391226067
  0
LWPOLYLINE
  5
B0
330
17
100
AcDbEntity
  8
SLICES
100
AcDbPolyline
 90
2
 70
0
 10
99.7658070387975
 20
209.1639810190751
 10
99.7658070387975
 20
260.2552690129325
  0
LWPOLYLINE
  5
B1
330
17
100
AcDbEntity
  8
SLICES
100
AcDbPolyline
 90
2
 70
0
 10
99.7658070387975
 20
209.1639810190751
 10
99.7658070387975
 20
260.2552690129325
  0
LWPOLYLINE
  5
B2
330
17
100
AcDbEntity
  8
SLICES
100
AcDbPolyline
 90
2
 70
0
 10
110.85089670977501
 20
210.31573109403627
 10
110.85089670977501
 20
263.95029890325833
  0
LWPOLYLINE
  5
B3
330
17
100
AcDbEntity
  8
SLICES
100
AcDbPolyline
 90
2
 70
0
 10
110.85089670977501
 20
210.31573109403627
 10
110.85089670977501
 20
263.95029890325833
  0
LWPOLYLINE
  5
B4
330
17
100
AcDbEntity
  8
SLICES
100
AcDbPolyline
 90
2
 70
0
 10
121.93598638075251
 20
211.91515940247774
 10
121.93598638075251
 20
267.64532879358416
  0
LWPOLYLINE
  5
B5
330
17
100
AcDbEntity
  8
SLICES
100
AcDbPolyline
 90
2
 70
0
 10
121.93598638075251
 20
211.91515940247774
 10
121.93598638075251
 20
267.64532879358416
  0
LWPOLYLINE
  5
B6
330
17
100
AcDbEntity
  8
SLICES
100
AcDbPolyline
 90
2
 70
0
 10
133.02107605173
 20
213.97007236434678
 10
133.02107605173
 20
271.34035868391
  0
LWPOLYLINE
  5
B7
330
17
100
AcDbEntity
  8
SLICES
100
AcDbPolyline
 90
2
 70
0
 10
133.02107605173
 20
213.97007236434678
 10
133.02107605173
 20
271.34035868391
  0
LWPOLYLINE
  5
B8
330
17
100
AcDbEntity
  8
SLICES
100
AcDbPolyline
 90
2
 70
0
 10
144.10616572270752
 20
216.49076869484975
 10
144.10616572270752
 20
275.0353885742358
  0
LWPOLYLINE
  5
B9
330
17
100
AcDbEntity
  8
SLICES
100
AcDbPolyline
 90
2
 70
0
 10
144.10616572270752
 20
216.49076869484975
 10
144.10616572270752
 20
275.0353885742358
  0
LWPOLYLINE
  5
BA
330
17
100
AcDbEntity
  8
SLICES
100
AcDbPolyline
 90
2
 70
0
 10
155.19125539368503
 20
219.49031077929874
 10
155.19125539368503
 20
278.7304184645617
  0
LWPOLYLINE
  5
BB
330
17
100
AcDbEntity
  8
SLICES
100
AcDbPolyline
 90
2
 70
0
 10
155.19125539368503
 20
219.49031077929874
 10
155.19125539368503
 20
278.7304184645617
  0
LWPOLYLINE
  5
BC
330
17
100
AcDbEntity
  8
SLICES
100
AcDbPolyline
 90
2
 70
0
 10
166.2763450646625
 20
222.98488803064845
 10
166.2763450646625
 20
282.4254483548875
  0
LWPOLYLINE
  5
BD
330
17
100
AcDbEntity
  8
SLICES
100
AcDbPolyline
 90
2
 70
0
 10
166.2763450646625
 20
222.98488803064845
 10
166.2763450646625
 20
282.4254483548875
  0
LWPOLYLINE
  5
BE
330
17
100
AcDbEntity
  8
SLICES
100
AcDbPolyline
 90
2
 70
0
 10
177.36143473564002
 20
226.99429748560863
 10
177.36143473564002
 20
286.12047824521335
  0
LWPOLYLINE
  5
BF
330
17
100
AcDbEntity
  8
SLICES
100
AcDbPolyline
 90
2
 70
0
 10
177.36143473564002
 20
226.99429748560863
 10
177.36143473564002
 20
286.12047824521335
  0
LWPOLYLINE
  5
C0
330
17
100
AcDbEntity
  8
SLICES
100
AcDbPolyline
 90
2
 70
0
 10
189.27107605173
 20
231.9031971209725
 10
189.27107605173
 20
290.09035868391
  0
LWPOLYLINE
  5
C1
330
17
100
AcDbEntity
  8
SLICES
100
AcDbPolyline
 90
2
 70
0
 10
189.27107605173
 20
231.9031971209725
 10
189.27107605173
 20
290.09035868391
  0
LWPOLYLINE
  5
C2
330
17
100
AcDbEntity
  8
SLICES
100
AcDbPolyline
 90
2
 70
0
 10
201.18071736782002
 20
237.47059147602172
 10
201.18071736782002
 20
294.0602391226067
  0
LWPOLYLINE
  5
C3
330
17
100
AcDbEntity
  8
SLICES
100
AcDbPolyline
 90
2
 70
0
 10
201.18071736782002
 20
237.47059147602172
 10
201.18071736782002
 20
294.0602391226067
  0
LWPOLYLINE
  5
C4
330
17
100
AcDbEntity
  8
SLICES
100
AcDbPolyline
 90
2
 70
0
 10
213.09035868391
 20
243.74129535429853
 10
213.09035868391
 20
298.0301195613033
  0
LWPOLYLINE
  5
C5
330
17
100
AcDbEntity
  8
SLICES
100
AcDbPolyline
 90
2
 70
0
 10
213.09035868391
 20
243.74129535429853
 10
213.09035868391
 20
298.0301195613033
  0
LWPOLYLINE
  5
C6
330
17
100
AcDbEntity
  8
SLICES
100
AcDbPolyline
 90
2
 70
0
 10
225.0
 20
250.77080856355212
 10
225.0
 20
302.0
  0
LWPOLYLINE
  5
C7
330
17
100
AcDbEntity
  8
SLICES
100
AcDbPolyline
 90
2
 70
0
 10
225.0
 20
250.77080856355212
 10
225.0
 20
302.0
  0
LWPOLYLINE
  5
C8
330
17
100
AcDbEntity
  8
SLICES
100
AcDbPolyline
 90
2
 70
0
 10
235.93129557866158
 20
257.9498492677934
 10
235.93129557866158
 20
305.6437651928872
  0
LWPOLYLINE
  5
C9
330
17
100
AcDbEntity
  8
SLICES
100
AcDbPolyline
 90
2
 70
0
 10
235.93129557866158
 20
257.9498492677934
 10
235.93129557866158
 20
305.6437651928872
  0
LWPOLYLINE
  5
CA
330
17
100
AcDbEntity
  8
SLICES
100
AcDbPolyline
 90
2
 70
0
 10
246.86259115732315
 20
265.8937079649955
 10
246.86259115732315
 20
309.2875303857744
  0
LWPOLYLINE
  5
CB
330
17
100
AcDbEntity
  8
SLICES
100
AcDbPolyline
 90
2
 70
0
 10
246.86259115732315
 20
265.8937079649955
 10
246.86259115732315
 20
309.2875303857744
  0
LWPOLYLINE
  5
CC
330
17
100
AcDbEntity
  8
SLICES
100
AcDbPolyline
 90
2
 70
0
 10
257.79388673598476
 20
274.6873618613378
 10
257.79388673598476
 20
312.9312955786616
  0
LWPOLYLINE
  5
CD
330
17
100
AcDbEntity
  8
SLICES
100
AcDbPolyline
 90
2
 70
0
 10
257.79388673598476
 20
274.6873618613378
 10
257.79388673598476
 20
312.9312955786616
  0
LWPOLYLINE
  5
CE
330
17
100
AcDbEntity
  8
SLICES
100
AcDbPolyline
 90
2
 70
0
 10
268.7251823146463
 20
284.4403026084776
 10
268.7251823146463
 20
316.57506077154875
  0
LWPOLYLINE
  5
CF
330
17
100
AcDbEntity
  8
SLICES
100
AcDbPolyline
 90
2
 70
0
 10
268.7251823146463
 20
284.4403026084776
 10
268.7251823146463
 20
316.57506077154875
  0
LWPOLYLINE
  5
D0
330
17
100
AcDbEntity
  8
SLICES
100
AcDbPolyline
 90
2
 70
0
 10
270.0
 20
285.64635789242766
 10
270.0
 20
317.0
  0
LWPOLYLINE
  5
D1
330
17
100
AcDbEntity
  8
SLICES
100
AcDbPolyline
 90
2
 70
0
 10
270.0
 20
285.64635789242766
 10
270.0
 20
317.0
  0
LWPOLYLINE
  5
D2
330
17
100
AcDbEntity
  8
SLICES
100
AcDbPolyline
 90
2
 70
0
 10
280.0
 20
295.65834367579873
 10
280.0
 20
317.0
  0
LWPOLYLINE
  5
D3
330
17
100
AcDbEntity
  8
SLICES
100
AcDbPolyline
 90
2
 70
0
 10
280.0
 20
295.65834367579873
 10
280.0
 20
317.0
  0
LWPOLYLINE
  5
D4
330
17
100
AcDbEntity
  8
SLICES
100
AcDbPolyline
 90
2
 70
0
 10
282.53575153728303
 20
298.3638876364771
 10
282.53575153728303
 20
317.0
  0
LWPOLYLINE
  5
D5
330
17
100
AcDbEntity
  8
SLICES
100
AcDbPolyline
 90
2
 70
0
 10
282.53575153728303
 20
298.3638876364771
 10
282.53575153728303
 20
317.0
  0
LWPOLYLINE
  5
D6
330
17
100
AcDbEntity
  8
SLICES
100
AcDbPolyline
 90
2
 70
0
 10
290.19025348168515
 20
306.98822265087983
 10
290.19025348168515
 20
317.0
  0
LWPOLYLINE
  5
D7
330
17
100
AcDbEntity
  8
SLICES
100
AcDbPolyline
 90
2
 70
0
 10
290.19025348168515
 20
306.98822265087983
 10
290.19025348168515
 20
317.0
  0
LWPOLYLINE
  5
D8
330
17
100
AcDbEntity
  8
SLICES
100
AcDbPolyline
 90
2
 70
0
 10
298.3185704476743
 20
316.9899697622976
 10
298.3185704476743
 20
317.0
  0
LWPOLYLINE
  5
DA
330
17
100
AcDbEntity
  8
FAILURE_SURFACE
100
AcDbPolyline
 90
43
 70
0
 10
-24.818409545356275
 20
227.0
 10
-23.99006224625741
 20
226.68203450913768
 10
-15.612473483659471
 20
223.63284156462902
 10
-7.142357890968469
 20
220.8509873386672
 10
1.4117558433947437
 20
218.33927292265025
 10
10.041254452001041
 20
216.100227400086
 10
18.73744876124237
 20
214.13610530002006
 10
27.491582440594378
 20
212.44888432691562
 10
36.29484081949811
 20
211.04026336927302
 10
45.13835976298627
 20
209.91166078899295
 10
54.01323459711574
 20
209.06421299320613
 10
62.910529075219515
 20
208.49877329000788
 10
71.82128437594973
 20
208.21591102924907
 10
80.73652812405044
 20
208.21591102924907
 10
89.6472834247804
 20
208.49877329000788
 10
98.54457790288416
 20
209.06421299320613
 10
107.41945273701364
 20
209.91166078899295
 10
116.26297168050179
 20
211.04026336927302
 10
125.06623005940553
 20
212.44888432691562
 10
133.82036373875778
 20
214.13610530002006
 10
142.51655804799887
 20
216.10022740008594
 10
151.1460566566052
 20
218.3392729226502
 10
159.70017039096837
 20
220.8509873386672
 10
168.1702859836594
 20
223.63284156462896
 10
176.54787474625732
 20
226.68203450913762
 10
184.82450115701604
 20
229.99549589336715
 10
192.9918313547195
 20
233.5698893425736
 10
201.04164153017348
 20
237.40161574554207
 10
208.9658262068848
 20
241.4868168785864
 10
216.7564064025879
 20
245.82137929045308
 10
224.40553766340514
 20
250.40093844421858
 10
231.90551796254596
 20
255.22088311200764
 10
239.24879545559523
 20
260.276360018109
 10
246.42797608458065
 20
265.5622787258129
 10
253.43583102316128
 20
271.0733167630483
 10
260.26530395544523
 20
276.80392498166293
 10
266.9095181810985
 20
282.748333144943
 10
273.36178353960264
 20
288.90055573775464
 10
279.61560314667605
 20
295.2543979934478
 10
285.6646799360883
 20
301.8034621314635
 10
291.5029230002706
 20
308.5411537993551
 10
297.1244537233441
 20
315.4606887127426
 10
298.32634644809366
 20
317.0
  0
LWPOLYLINE
  5
DC
330
17
100
AcDbEntity
  8
PIEZO
100
AcDbPolyline
 90
6
 70
0
 10
-150.0
 20
302.0
 10
277.5
 20
302.0
 10
315.0
 20
275.0
 10
343.5
 20
240.0
 10
590.0
 20
227.0
 10
740.0
 20
227.0
  0
POINT
  5
DE
330
17
100
AcDbEntity
  8
LINES
100
AcDbPoint
 10
295.0
 20
289.4
 30
0.0
  0
LWPOLYLINE
  5
E0
330
17
100
AcDbEntity
  8
DLOADS
100
AcDbPolyline
 90
13
 70
0
 10
-150.0
 20
302.0
 10
-137.5
 20
302.0
 10
-125.0
 20
302.0
 10
-112.5
 20
302.0
 10
-100.0
 20
302.0
 10
-87.5
 20
302.0
 10
-75.0
 20
302.0
 10
-62.500000000000014
 20
302.0
 10
-50.0
 20
302.0
 10
-37.5
 20
302.0
 10
-25.000000000000014
 20
302.0
 10
-12.5
 20
302.0
 10
0.0
 20
302.0
  0
LWPOLYLINE
  5
E1
330
17
100
AcDbEntity
  8
DLOADS
100
AcDbPolyline
 90
2
 70
0
 10
211.18238430826318
 20
301.78618040854377
 10
212.5
 20
297.8333333333333
  0
LWPOLYLINE
  5
E2
330
17
100
AcDbEntity
  8
DLOADS
100
AcDbPolyline
 90
20
 70
0
 10
-23.717082451262847
 20
298.15124735378856
 10
-9.899466759526021
 20
298.36506694524473
 10
3.9181489322108014
 20
298.5788865367009
 10
17.735764623947627
 20
298.7927061281571
 10
31.553380315684453
 20
299.0065257196133
 10
45.370996007421276
 20
299.22034531106954
 10
59.1886116991581
 20
299.4341649025257
 10
73.0062273908949
 20
299.6479844939819
 10
86.82384308263175
 20
299.86180408543805
 10
100.64145877436857
 20
300.0756236768943
 10
114.4590744661054
 20
300.2894432683505
 10
128.2766901578422
 20
300.5032628598066
 10
142.09430584957906
 20
300.71708245126285
 10
155.91192154131588
 20
300.930902042719
 10
169.72953723305267
 20
301.1447216341752
 10
183.5471529247895
 20
301.3585412256314
 10
197.36476861652636
 20
301.5723608170876
 10
211.18238430826318
 20
301.78618040854377
 10
225.0
 20
302.0
 10
225.0
 20
302.0
  0
LWPOLYLINE
  5
E3
330
17
100
AcDbEntity
  8
DLOADS
100
AcDbPolyline
 90
3
 70
0
 10
-150.0
 20
227.0
 10
0.0
 20
227.0
 10
225.0
 20
302.0
  0
LWPOLYLINE
  5
E5
330
17
100
AcDbEntity
  8
LINE_OF_THRUST
100
AcDbPolyline
 90
64
 70
0
 10
-24.818409545356275
 20
227.0
 10
-24.80362223564009
 20
226.99782363678406
 10
-24.80362223564009
 20
226.99782363678406
 10
-12.401811117820046
 20
225.25622732027165
 10
-12.401811117820046
 20
225.25622732027165
 10
0.0
 20
223.78853394326646
 10
0.0
 20
223.78853394326646
 10
11.085089670977501
 20
223.9043172641514
 10
11.085089670977501
 20
223.9043172641514
 10
22.170179341955002
 20
224.29353930394825
 10
22.170179341955002
 20
224.29353930394825
 10
33.2552690129325
 20
224.86047235909072
 10
33.2552690129325
 20
224.86047235909072
 10
44.340358683910004
 20
225.60112103704145
 10
44.340358683910004
 20
225.60112103704145
 10
55.42544835488751
 20
226.52521752751144
 10
55.42544835488751
 20
226.52521752751144
 10
66.510538025865
 20
227.6446202773284
 10
66.510538025865
 20
227.6446202773284
 10
77.59562769684251
 20
228.97108358530076
 10
77.59562769684251
 20
228.97108358530076
 10
88.68071736782001
 20
230.5160368809126
 10
88.68071736782001
 20
230.5160368809126
 10
99.7658070387975
 20
232.29088398303753
 10
99.7658070387975
 20
232.29088398303753
 10
110.85089670977501
 20
234.30746328567528
 10
110.85089670977501
 20
234.30746328567528
 10
121.93598638075251
 20
236.57859824904426
 10
121.93598638075251
 20
236.57859824904426
 10
133.02107605173
 20
239.11876600281497
 10
133.02107605173
 20
239.11876600281497
 10
144.10616572270752
 20
241.94497159510817
 10
144.10616572270752
 20
241.94497159510817
 10
155.19125539368503
 20
245.07799059812268
 10
155.19125539368503
 20
245.07799059812268
 10
166.2763450646625
 20
248.54427980454054
 10
166.2763450646625
 20
248.54427980454054
 10
177.36143473564002
 20
252.37913979395302
 10
177.36143473564002
 20
252.37913979395302
 10
189.27107605173
 20
256.39564856819396
 10
189.27107605173
 20
256.39564856819396
 10
201.18071736782002
 20
260.7745154017957
 10
201.18071736782002
 20
260.7745154017957
 10
213.09035868391
 20
265.51086208356594
 10
213.09035868391
 20
265.51086208356594
 10
225.0
 20
270.5763609748484
 10
225.0
 20
270.5763609748484
 10
235.93129557866158
 20
275.611972484773
 10
235.93129557866158
 20
275.611972484773
 10
246.86259115732315
 20
281.15235471878896
 10
246.86259115732315
 20
281.15235471878896
 10
257.79388673598476
 20
287.24503722347976
 10
257.79388673598476
 20
287.24503722347976
 10
268.7251823146463
 20
293.93786690965976
 10
268.7251823146463
 20
293.93786690965976
 10
270.0
 20
294.8417462551093
 10
270.0
 20
294.8417462551093
 10
280.0
 20
302.45477507192646
 10
280.0
 20
302.45477507192646
 10
282.53575153728303
 20
304.56300729713274
 10
282.53575153728303
 20
304.56300729713274
 10
290.19025348168515
 20
311.50088364256544
 10
290.19025348168515
 20
311.50088364256544
 10
298.3185704476743
 20
316.9899697622976
  0
LWPOLYLINE
  5
E6
330
17
100
AcDbEntity
  8
MAX_DEPTH
100
AcDbPolyline
 90
2
 70
0
 10
-150.0
 20
182.0
 10
740.0
 20
182.0
  0
LWPOLYLINE
  5
E7
330
17
100
AcDbEntity
  8
DLOADS
100
AcDbPolyline
 90
8
 70
1
 10
-150.0
 20
227.0
 10
-152.5
 20
233.25
 10
-150.0005
 20
233.25
 10
-150.0005
 20
302.0
 10
-149.9995
 20
302.0
 10
-149.9995
 20
233.25
 10
-147.5
 20
233.25
 10
-150.0
 20
227.0
  0
LWPOLYLINE
  5
E8
330
17
100
AcDbEntity
  8
DLOADS
100
AcDbPolyline
 90
8
 70
1
 10
-137.5
 20
227.0
 10
-140.0
 20
233.25
 10
-137.5005
 20
233.25
 10
-137.5005
 20
302.0
 10
-137.4995
 20
302.0
 10
-137.4995
 20
233.25
 10
-135.0
 20
233.25
 10
-137.5
 20
227.0
  0
LWPOLYLINE
  5
E9
330
17
100
AcDbEntity
  8
DLOADS
100
AcDbPolyline
 90
8
 70
1
 10
-125.0
 20
227.0
 10
-127.5
 20
233.25
 10
-125.0005
 20
233.25
 10
-125.0005
 20
302.0
 10
-124.9995
 20
302.0
 10
-124.9995
 20
233.25
 10
-122.5
 20
233.25
 10
-125.0
 20
227.0
  0
LWPOLYLINE
  5
EA
330
17
100
AcDbEntity
  8
DLOADS
100
AcDbPolyline
 90
8
 70
1
 10
-112.5
 20
227.0
 10
-115.0
 20
233.25
 10
-112.5005
 20
233.25
 10
-112.5005
 20
302.0
 10
-112.4995
 20
302.0
 10
-112.4995
 20
233.25
 10
-110.0
 20
233.25
 10
-112.5
 20
227.0
  0
LWPOLYLINE
  5
EB
330
17
100
AcDbEntity
  8
DLOADS
100
AcDbPolyline
 90
8
 70
1
 10
-100.0
 20
227.0
 10
-102.5
 20
233.25
 10
-100.0005
 20
233.25
 10
-100.0005
 20
302.0
 10
-99.9995
 20
302.0
 10
-99.9995
 20
233.25
 10
-97.5
 20
233.25
 10
-100.0
 20
227.0
  0
LWPOLYLINE
  5
EC
330
17
100
AcDbEntity
  8
DLOADS
100
AcDbPolyline
 90
8
 70
1
 10
-87.5
 20
227.0
 10
-90.0
 20
233.25
 10
-87.5005
 20
233.25
 10
-87.5005
 20
302.0
 10
-87.4995
 20
302.0
 10
-87.4995
 20
233.25
 10
-85.0
 20
233.25
 10
-87.5
 20
227.0
  0
LWPOLYLINE
  5
ED
330
17
100
AcDbEntity
  8
DLOADS
100
AcDbPolyline
 90
8
 70
1
 10
-75.0
 20
227.0
 10
-77.5
 20
233.25
 10
-75.0005
 20
233.25
 10
-75.0005
 20
302.0
 10
-74.9995
 20
302.0
 10
-74.9995
 20
233.25
 10
-72.5
 20
233.25
 10
-75.0
 20
227.0
  0
LWPOLYLINE
  5
EE
330
17
100
AcDbEntity
  8
DLOADS
100
AcDbPolyline
 90
8
 70
1
 10
-62.500000000000014
 20
227.0
 10
-65.00000000000001
 20
233.25
 10
-62.50050000000002
 20
233.25
 10
-62.50050000000002
 20
302.0
 10
-62.49950000000001
 20
302.0
 10
-62.49950000000001
 20
233.25
 10
-60.000000000000014
 20
233.25
 10
-62.500000000000014
 20
227.0
  0
LWPOLYLINE
  5
EF
330
17
100
AcDbEntity
  8
DLOADS
100
AcDbPolyline
 90
8
 70
1
 10
-50.0
 20
227.0
 10
-52.5
 20
233.25
 10
-50.0005
 20
233.25
 10
-50.0005
 20
302.0
 10
-49.9995
 20
302.0
 10
-49.9995
 20
233.25
 10
-47.5
 20
233.25
 10
-50.0
 20
227.0
  0
LWPOLYLINE
  5
F0
330
17
100
AcDbEntity
  8
DLOADS
100
AcDbPolyline
 90
8
 70
1
 10
-37.5
 20
227.0
 10
-40.0
 20
233.25
 10
-37.5005
 20
233.25
 10
-37.5005
 20
302.0
 10
-37.4995
 20
302.0
 10
-37.4995
 20
233.25
 10
-35.0
 20
233.25
 10
-37.5
 20
227.0
  0
LWPOLYLINE
  5
F1
330
17
100
AcDbEntity
  8
DLOADS
100
AcDbPolyline
 90
8
 70
1
 10
-25.000000000000014
 20
227.0
 10
-27.500000000000014
 20
233.25
 10
-25.000500000000013
 20
233.25
 10
-25.000500000000013
 20
302.0
 10
-24.999500000000015
 20
302.0
 10
-24.999500000000015
 20
233.25
 10
-22.500000000000014
 20
233.25
 10
-25.000000000000014
 20
227.0
  0
LWPOLYLINE
  5
F2
330
17
100
AcDbEntity
  8
DLOADS
100
AcDbPolyline
 90
8
 70
1
 10
-12.5
 20
227.0
 10
-15.0
 20
233.25
 10
-12.5005
 20
233.25
 10
-12.5005
 20
302.0
 10
-12.4995
 20
302.0
 10
-12.4995
 20
233.25
 10
-10.0
 20
233.25
 10
-12.5
 20
227.0
  0
LWPOLYLINE
  5
F3
330
17
100
AcDbEntity
  8
DLOADS
100
AcDbPolyline
 90
8
 70
1
 10
0.0
 20
227.0
 10
-2.5
 20
233.25
 10
-0.0005
 20
233.25
 10
-0.0005
 20
302.0
 10
0.0005
 20
302.0
 10
0.0005
 20
233.25
 10
2.5
 20
233.25
 10
0.0
 20
227.0
  0
LWPOLYLINE
  5
F4
330
17
100
AcDbEntity
  8
DLOADS
100
AcDbPolyline
 90
8
 70
1
 10
0.0
 20
227.0
 10
-4.348131782731521
 20
232.13870119777363
 10
-1.9768978792542615
 20
232.9291124989327
 10
-23.71755679291187
 20
298.15108923990556
 10
-23.716608109613823
 20
298.15140546767157
 10
-1.9759491959562112
 20
232.92942872669872
 10
0.39528470752104805
 20
233.7198400278578
 10
0.0
 20
227.0
  0
LWPOLYLINE
  5
F5
330
17
100
AcDbEntity
  8
DLOADS
100
AcDbPolyline
 90
8
 70
1
 10
12.5
 20
231.16666666666666
 10
8.151868217268479
 20
236.30536786444029
 10
10.523102120745738
 20
237.09577916559937
 10
-9.899941101175045
 20
298.36490883136173
 10
-9.898992417876997
 20
298.36522505912774
 10
10.524050804043789
 20
237.09609539336537
 10
12.895284707521048
 20
237.88650669452446
 10
12.5
 20
231.16666666666666
  0
LWPOLYLINE
  5
F6
330
17
100
AcDbEntity
  8
DLOADS
100
AcDbPolyline
 90
8
 70
1
 10
25.0
 20
235.33333333333334
 10
20.65186821726848
 20
240.47203453110697
 10
23.023102120745737
 20
241.26244583226605
 10
3.917674590561777
 20
298.5787284228179
 10
3.9186232738598257
 20
298.5790446505839
 10
23.02405080404379
 20
241.26276206003206
 10
25.395284707521046
 20
242.05317336119114
 10
25.0
 20
235.33333333333334
  0
LWPOLYLINE
  5
F7
330
17
100
AcDbEntity
  8
DLOADS
100
AcDbPolyline
 90
8
 70
1
 10
37.5
 20
239.5
 10
33.15186821726848
 20
244.63870119777363
 10
35.52310212074573
 20
245.4291124989327
 10
17.735290282298603
 20
298.7925480142741
 10
17.73623896559665
 20
298.7928642420401
 10
35.52405080404379
 20
245.42942872669872
 10
37.89528470752104
 20
246.2198400278578
 10
37.5
 20
239.5
  0
LWPOLYLINE
  5
F8
330
17
100
AcDbEntity
  8
DLOADS
100
AcDbPolyline
 90
8
 70
1
 10
50.0
 20
243.66666666666666
 10
45.65186821726848
 20
248.80536786444029
 10
48.02310212074574
 20
249.59577916559937
 10
31.55290597403543
 20
299.0063676057303
 10
31.553854657333478
 20
299.0066838334963
 10
48.02405080404379
 20
249.59609539336537
 10
50.39528470752105
 20
250.38650669452446
 10
50.0
 20
243.66666666666666
  0
LWPOLYLINE
  5
F9
330
17
100
AcDbEntity
  8
DLOADS
100
AcDbPolyline
 90
8
 70
1
 10
62.5
 20
247.83333333333334
 10
58.15186821726848
 20
252.97203453110697
 10
60.52310212074574
 20
253.76244583226605
 10
45.37052166577225
 20
299.22018719718653
 10
45.3714703490703
 20
299.22050342495254
 10
60.52405080404379
 20
253.76276206003206
 10
62.89528470752105
 20
254.55317336119114
 10
62.5
 20
247.83333333333334
  0
LWPOLYLINE
  5
FA
330
17
100
AcDbEntity
  8
DLOADS
100
AcDbPolyline
 90
8
 70
1
 10
75.0
 20
252.0
 10
70.65186821726849
 20
257.1387011977736
 10
73.02310212074573
 20
257.9291124989327
 10
59.18813735750908
 20
299.4340067886427
 10
59.189086040807126
 20
299.4343230164087
 10
73.02405080404378
 20
257.92942872669875
 10
75.39528470752104
 20
258.7198400278578
 10
75.0
 20
252.0
  0
LWPOLYLINE
  5
FB
330
17
100
AcDbEntity
  8
DLOADS
100
AcDbPolyline
 90
8
 70
1
 10
87.49999999999999
 20
256.1666666666667
 10
83.15186821726846
 20
261.3053678644403
 10
85.52310212074572
 20
262.09577916559937
 10
73.00575304924588
 20
299.6478263800989
 10
73.00670173254393
 20
299.6481426078649
 10
85.52405080404377
 20
262.09609539336543
 10
87.89528470752103
 20
262.8865066945245
 10
87.49999999999999
 20
256.1666666666667
  0
LWPOLYLINE
  5
FC
330
17
100
AcDbEntity
  8
DLOADS
100
AcDbPolyline
 90
8
 70
1
 10
100.0
 20
260.3333333333333
 10
95.65186821726847
 20
265.47203453110694
 10
98.02310212074573
 20
266.262445832266
 10
86.82336874098273
 20
299.86164597155505
 10
86.82431742428078
 20
299.86196219932106
 10
98.02405080404378
 20
266.26276206003206
 10
100.39528470752104
 20
267.0531733611911
 10
100.0
 20
260.3333333333333
  0
LWPOLYLINE
  5
FD
330
17
100
AcDbEntity
  8
DLOADS
100
AcDbPolyline
 90
8
 70
1
 10
112.5
 20
264.5
 10
108.15186821726847
 20
269.6387011977736
 10
110.52310212074573
 20
270.4291124989327
 10
100.64098443271955
 20
300.0754655630113
 10
100.6419331160176
 20
300.0757817907773
 10
110.52405080404378
 20
270.42942872669875
 10
112.89528470752104
 20
271.2198400278578
 10
112.5
 20
264.5
  0
LWPOLYLINE
  5
FE
330
17
100
AcDbEntity
  8
DLOADS
100
AcDbPolyline
 90
8
 70
1
 10
125.0
 20
268.6666666666667
 10
120.65186821726849
 20
273.8053678644403
 10
123.02310212074573
 20
274.59577916559937
 10
114.45860012445638
 20
300.2892851544675
 10
114.45954880775443
 20
300.2896013822335
 10
123.0240508040438
 20
274.59609539336543
 10
125.39528470752106
 20
275.3865066945245
 10
125.0
 20
268.6666666666667
  0
LWPOLYLINE
  5
FF
330
17
100
AcDbEntity
  8
DLOADS
100
AcDbPolyline
 90
8
 70
1
 10
137.5
 20
272.8333333333333
 10
133.1518682172685
 20
277.97203453110694
 10
135.52310212074573
 20
278.762445832266
 10
128.27621581619317
 20
300.5031047459236
 10
128.27716449949125
 20
300.50342097368963
 10
135.52405080404378
 20
278.76276206003206
 10
137.89528470752106
 20
279.5531733611911
 10
137.5
 20
272.8333333333333
  0
LWPOLYLINE
  5
100
330
17
100
AcDbEntity
  8
DLOADS
100
AcDbPolyline
 90
8
 70
1
 10
150.0
 20
277.0
 10
145.6518682172685
 20
282.1387011977736
 10
148.02310212074573
 20
282.9291124989327
 10
142.09383150793002
 20
300.71692433737985
 10
142.0947801912281
 20
300.71724056514586
 10
148.02405080404378
 20
282.92942872669875
 10
150.39528470752106
 20
283.7198400278578
 10
150.0
 20
277.0
  0
LWPOLYLINE
  5
101
330
17
100
AcDbEntity
  8
DLOADS
100
AcDbPolyline
 90
8
 70
1
 10
162.5
 20
281.1666666666667
 10
158.1518682172685
 20
286.3053678644403
 10
160.52310212074573
 20
287.09577916559937
 10
155.91144719966684
 20
300.930743928836
 10
155.91239588296492
 20
300.93106015660203
 10
160.52405080404378
 20
287.09609539336543
 10
162.89528470752106
 20
287.8865066945245
 10
162.5
 20
281.1666666666667
  0
LWPOLYLINE
  5
102
330
17
100
AcDbEntity
  8
DLOADS
100
AcDbPolyline
 90
8
 70
1
 10
174.99999999999997
 20
285.3333333333333
 10
170.65186821726846
 20
290.47203453110694
 10
173.0231021207457
 20
291.262445832266
 10
169.72906289140363
 20
301.1445635202922
 10
169.7300115747017
 20
301.1448797480582
 10
173.02405080404375
 20
291.26276206003206
 10
175.39528470752103
 20
292.0531733611911
 10
174.99999999999997
 20
285.3333333333333
  0
LWPOLYLINE
  5
103
330
17
100
AcDbEntity
  8
DLOADS
100
AcDbPolyline
 90
8
 70
1
 10
187.49999999999997
 20
289.5
 10
183.15186821726846
 20
294.6387011977736
 10
185.5231021207457
 20
295.4291124989327
 10
183.54667858314045
 20
301.3583831117484
 10
183.54762726643852
 20
301.35869933951443
 10
185.52405080404375
 20
295.42942872669875
 10
187.89528470752103
 20
296.2198400278578
 10
187.49999999999997
 20
289.5
  0
LWPOLYLINE
  5
104
330
17
100
AcDbEntity
  8
DLOADS
100
AcDbPolyline
 90
8
 70
1
 10
200.0
 20
293.66666666666663
 10
195.6518682172685
 20
298.80536786444026
 10
198.02310212074576
 20
299.5957791655993
 10
197.36429427487732
 20
301.5722027032046
 10
197.3652429581754
 20
301.5725189309706
 10
198.0240508040438
 20
299.5960953933654
 10
200.39528470752106
 20
300.3865066945244
 10
200.0
 20
293.66666666666663
  0
LWPOLYLINE
  5
106
330
17
100
AcDbEntity
  8
EFF_NORMAL_STRESS
100
AcDbPolyline
 90
5
 70
1
 10
-24.818409545356275
 20
227.0
 10
-24.80362223564009
 20
226.99429748560863
 10
-25.421828482904573
 20
225.39121389486687
 10
-25.436615792620756
 20
225.39691640925824
 10
-24.818409545356275
 20
227.0
  0
LWPOLYLINE
  5
108
330
17
100
AcDbEntity
  8
PORE_PRESSURE
100
AcDbPolyline
 90
5
 70
1
 10
-24.818409545356275
 20
227.0
 10
-24.80362223564009
 20
226.99429748560863
 10
-39.65757943970464
 20
188.4761893998634
 10
-39.672366749420824
 20
188.48189191425476
 10
-24.818409545356275
 20
227.0
  0
LWPOLYLINE
  5
109
330
17
100
AcDbEntity
  8
EFF_NORMAL_STRESS
100
AcDbPolyline
 90
5
 70
1
 10
-24.80362223564009
 20
226.99429748560863
 10
-12.401811117820046
 20
222.5432691106016
 10
-13.4399804260739
 20
219.65063878238854
 10
-25.841791543893947
 20
224.10166715739555
 10
-24.80362223564009
 20
226.99429748560863
  0
LWPOLYLINE
  5
10A
330
17
100
AcDbEntity
  8
PORE_PRESSURE
100
AcDbPolyline
 90
5
 70
1
 10
-24.80362223564009
 20
226.99429748560863
 10
-12.401811117820046
 20
222.5432691106016
 10
-26.776956733788232
 20
182.49008910360706
 10
-39.17876785160828
 20
186.94111747861407
 10
-24.80362223564009
 20
226.99429748560863
  0
LWPOLYLINE
  5
10B
330
17
100
AcDbEntity
  8
EFF_NORMAL_STRESS
100
AcDbPolyline
 90
5
 70
1
 10
-12.401811117820046
 20
222.5432691106016
 10
0.0
 20
218.73354862464492
 10
-1.5798933896117757
 20
213.59051005357836
 10
-13.981704507431822
 20
217.40023053953504
 10
-12.401811117820046
 20
222.5432691106016
  0
LWPOLYLINE
  5
10C
330
17
100
AcDbEntity
  8
PORE_PRESSURE
100
AcDbPolyline
 90
5
 70
1
 10
-12.401811117820046
 20
222.5432691106016
 10
0.0
 20
218.73354862464492
 10
-13.16307739051332
 20
175.88368598297666
 10
-25.564888508333368
 20
179.69340646893335
 10
-12.401811117820046
 20
222.5432691106016
  0
LWPOLYLINE
  5
10D
330
17
100
AcDbEntity
  8
EFF_NORMAL_STRESS
100
AcDbPolyline
 90
5
 70
1
 10
0.0
 20
218.73354862464492
 10
11.085089670977501
 20
215.84910653018142
 10
8.656786921075799
 20
206.51698861988993
 10
-2.4283027499017025
 20
209.40143071435344
 10
0.0
 20
218.73354862464492
  0
LWPOLYLINE
  5
10E
330
17
100
AcDbEntity
  8
PORE_PRESSURE
100
AcDbPolyline
 90
5
 70
1
 10
0.0
 20
218.73354862464492
 10
11.085089670977501
 20
215.84910653018142
 10
-0.6646035286696339
 20
170.69430762658678
 10
-11.749693199647135
 20
173.5787497210503
 10
0.0
 20
218.73354862464492
  0
LWPOLYLINE
  5
10F
330
17
100
AcDbEntity
  8
EFF_NORMAL_STRESS
100
AcDbPolyline
 90
5
 70
1
 10
11.085089670977501
 20
215.84910653018142
 10
22.170179341955002
 20
213.4401390988241
 10
19.394432140327027
 20
200.66727789966953
 10
8.309342469349524
 20
203.07624533102685
 10
11.085089670977501
 20
215.84910653018142
  0
LWPOLYLINE
  5
110
330
17
100
AcDbEntity
  8
PORE_PRESSURE
100
AcDbPolyline
 90
5
 70
1
 10
11.085089670977501
 20
215.84910653018142
 10
22.170179341955002
 20
213.4401390988241
 10
11.952656723054586
 20
166.42325004859117
 10
0.8675670520770851
 20
168.8322174799485
 10
11.085089670977501
 20
215.84910653018142
  0
LWPOLYLINE
  5
111
330
17
100
AcDbEntity
  8
EFF_NORMAL_STRESS
100
AcDbPolyline
 90
5
 70
1
 10
22.170179341955002
 20
213.4401390988241
 10
33.2552690129325
 20
211.4942696207442
 10
30.469408495620527
 20
195.62397924766543
 10
19.384318824643028
 20
197.56984872574532
 10
22.170179341955002
 20
213.4401390988241
  0
LWPOLYLINE
  5
112
330
17
100
AcDbEntity
  8
PORE_PRESSURE
100
AcDbPolyline
 90
5
 70
1
 10
22.170179341955002
 20
213.4401390988241
 10
33.2552690129325
 20
211.4942696207442
 10
24.729427636914437
 20
162.924868004481
 10
13.64433796593694
 20
164.87073748256088
 10
22.170179341955002
 20
213.4401390988241
  0
LWPOLYLINE
  5
113
330
17
100
AcDbEntity
  8
EFF_NORMAL_STRESS
100
AcDbPolyline
 90
5
 70
1
 10
33.2552690129325
 20
211.4942696207442
 10
44.340358683910004
 20
210.0018130199714
 10
41.83220982566898
 20
191.3727587564405
 10
30.74712015469148
 20
192.86521535721332
 10
33.2552690129325
 20
211.4942696207442
  0
LWPOLYLINE
  5
114
330
17
100
AcDbEntity
  8
PORE_PRESSURE
100
AcDbPolyline
 90
5
 70
1
 10
33.2552690129325
 20
211.4942696207442
 10
44.340358683910004
 20
210.0018130199714
 10
37.63434760369142
 20
160.19350762583176
 10
26.549257932713914
 20
161.68596422660457
 10
33.2552690129325
 20
211.4942696207442
  0
LWPOLYLINE
  5
115
330
17
100
AcDbEntity
  8
EFF_NORMAL_STRESS
100
AcDbPolyline
 90
5
 70
1
 10
44.340358683910004
 20
210.0018130199714
 10
55.42544835488751
 20
208.95552351448612
 10
53.43826764435037
 20
187.9020041460354
 10
42.353177973372865
 20
188.9482936515207
 10
44.340358683910004
 20
210.0018130199714
  0
LWPOLYLINE
  5
116
330
17
100
AcDbEntity
  8
PORE_PRESSURE
100
AcDbPolyline
 90
5
 70
1
 10
44.340358683910004
 20
210.0018130199714
 10
55.42544835488751
 20
208.95552351448612
 10
50.63714279915793
 20
158.2250171115916
 10
39.552053128180425
 20
159.27130661707687
 10
44.340358683910004
 20
210.0018130199714
  0
LWPOLYLINE
  5
117
330
17
100
AcDbEntity
  8
EFF_NORMAL_STRESS
100
AcDbPolyline
 90
5
 70
1
 10
55.42544835488751
 20
208.95552351448612
 10
66.510538025865
 20
208.3504134033024
 10
65.2469433829546
 20
185.20246121154636
 10
54.1618537119771
 20
185.80757132273007
 10
55.42544835488751
 20
208.95552351448612
  0
LWPOLYLINE
  5
118
330
17
100
AcDbEntity
  8
PORE_PRESSURE
100
AcDbPolyline
 90
5
 70
1
 10
55.42544835488751
 20
208.95552351448612
 10
66.510538025865
 20
208.3504134033024
 10
63.708343047879005
 20
157.0166445033355
 10
52.62325337690151
 20
157.6217546145192
 10
55.42544835488751
 20
208.95552351448612
  0
LWPOLYLINE
  5
119
330
17
100
AcDbEntity
  8
EFF_NORMAL_STRESS
100
AcDbPolyline
 90
5
 70
1
 10
66.510538025865
 20
208.3504134033024
 10
77.59562769684251
 20
208.18363205484303
 10
77.22074264653867
 20
183.2669705857149
 10
66.13565297556116
 20
183.43375193417427
 10
66.510538025865
 20
208.3504134033024
  0
LWPOLYLINE
  5
11A
330
17
100
AcDbEntity
  8
PORE_PRESSURE
100
AcDbPolyline
 90
5
 70
1
 10
66.510538025865
 20
208.3504134033024
 10
77.59562769684251
 20
208.18363205484303
 10
76.81902629219209
 20
156.56697174672968
 10
65.73393662121458
 20
156.73375309518906
 10
66.510538025865
 20
208.3504134033024
  0
LWPOLYLINE
  5
11B
330
17
100
AcDbEntity
  8
EFF_NORMAL_STRESS
100
AcDbPolyline
 90
5
 70
1
 10
77.59562769684251
 20
208.18363205484303
 10
88.68071736782001
 20
208.45439810031075
 10
89.32469114684945
 20
182.09028337548094
 10
78.23960147587195
 20
181.8195173300132
 10
77.59562769684251
 20
208.18363205484303
  0
LWPOLYLINE
  5
11C
330
17
100
AcDbEntity
  8
PORE_PRESSURE
100
AcDbPolyline
 90
5
 70
1
 10
77.59562769684251
 20
208.18363205484303
 10
88.68071736782001
 20
208.45439810031075
 10
89.94058187413857
 20
156.87588129736884
 10
78.85549220316108
 20
156.6051152519011
 10
77.59562769684251
 20
208.18363205484303
  0
LWPOLYLINE
  5
11D
330
17
100
AcDbEntity
  8
EFF_NORMAL_STRESS
100
AcDbPolyline
 90
5
 70
1
 10
88.68071736782001
 20
208.45439810031075
 10
99.7658070387975
 20
209.1639810190751
 10
101.52582981556746
 20
181.6689416268751
 10
90.44074014458997
 20
180.95935870811076
 10
88.68071736782001
 20
208.45439810031075
  0
LWPOLYLINE
  5
11E
330
17
100
AcDbEntity
  8
PORE_PRESSURE
100
AcDbPolyline
 90
5
 70
1
 10
88.68071736782001
 20
208.45439810031075
 10
99.7658070387975
 20
209.1639810190751
 10
103.04448425395185
 20
157.94455342142874
 10
91.95939458297435
 20
157.2349705026644
 10
88.68071736782001
 20
208.45439810031075
  0
LWPOLYLINE
  5
11F
330
17
100
AcDbEntity
  8
EFF_NORMAL_STRESS
100
AcDbPolyline
 90
5
 70
1
 10
99.7658070387975
 20
209.1639810190751
 10
110.85089670977501
 20
210.31573109403627
 10
113.79279858326423
 20
182.00121496783225
 10
102.70770891228672
 20
180.84946489287108
 10
99.7658070387975
 20
209.1639810190751
  0
LWPOLYLINE
  5
120
330
17
100
AcDbEntity
  8
PORE_PRESSURE
100
AcDbPolyline
 90
5
 70
1
 10
99.7658070387975
 20
209.1639810190751
 10
110.85089670977501
 20
210.31573109403627
 10
116.102069549569
 20
159.77549404748746
 10
105.01697987859148
 20
158.62374397252628
 10
99.7658070387975
 20
209.1639810190751
  0
LWPOLYLINE
  5
121
330
17
100
AcDbEntity
  8
EFF_NORMAL_STRESS
100
AcDbPolyline
 90
5
 70
1
 10
110.85089670977501
 20
210.31573109403627
 10
121.93598638075251
 20
211.91515940247774
 10
126.09548650503352
 20
183.08708900960946
 10
115.01039683405602
 20
181.48766070116798
 10
110.85089670977501
 20
210.31573109403627
  0
LWPOLYLINE
  5
122
330
17
100
AcDbEntity
  8
PORE_PRESSURE
100
AcDbPolyline
 90
5
 70
1
 10
110.85089670977501
 20
210.31573109403627
 10
121.93598638075251
 20
211.91515940247774
 10
129.08430748422688
 20
162.3725947181203
 10
117.99921781324939
 20
160.77316640967882
 10
110.85089670977501
 20
210.31573109403627
  0
LWPOLYLINE
  5
123
330
17
100
AcDbEntity
  8
EFF_NORMAL_STRESS
100
AcDbPolyline
 90
5
 70
1
 10
121.93598638075251
 20
211.91515940247774
 10
133.02107605173
 20
213.97007236434678
 10
138.40473161927864
 20
184.92830474142343
 10
127.31964194830113
 20
182.8733917795544
 10
121.93598638075251
 20
211.91515940247774
  0
LWPOLYLINE
  5
124
330
17
100
AcDbEntity
  8
PORE_PRESSURE
100
AcDbPolyline
 90
5
 70
1
 10
121.93598638075251
 20
211.91515940247774
 10
133.02107605173
 20
213.97007236434678
 10
141.9615609987568
 20
165.74122803914724
 10
130.87647132777929
 20
163.6863150772782
 10
121.93598638075251
 20
211.91515940247774
  0
LWPOLYLINE
  5
125
330
17
100
AcDbEntity
  8
EFF_NORMAL_STRESS
100
AcDbPolyline
 90
5
 70
1
 10
133.02107605173
 20
213.97007236434678
 10
144.10616572270752
 20
216.49076869484975
 10
150.6920579746808
 20
187.52845169812022
 10
139.6069683037033
 20
185.00775536761725
 10
133.02107605173
 20
213.97007236434678
  0
LWPOLYLINE
  5
126
330
17
100
AcDbEntity
  8
PORE_PRESSURE
100
AcDbPolyline
 90
5
 70
1
 10
133.02107605173
 20
213.97007236434678
 10
144.10616572270752
 20
216.49076869484975
 10
154.70332488044914
 20
169.88838422684574
 10
143.61823520947164
 20
167.36768789634277
 10
133.02107605173
 20
213.97007236434678
  0
LWPOLYLINE
  5
127
330
17
100
AcDbEntity
  8
EFF_NORMAL_STRESS
100
AcDbPolyline
 90
5
 70
1
 10
144.10616572270752
 20
216.49076869484975
 10
155.19125539368503
 20
219.49031077929874
 10
162.92944020761985
 20
190.8931215623916
 10
151.84435053664234
 20
187.8935794779426
 10
144.10616572270752
 20
216.49076869484975
  0
LWPOLYLINE
  5
128
330
17
100
AcDbEntity
  8
PORE_PRESSURE
100
AcDbPolyline
 90
5
 70
1
 10
144.10616572270752
 20
216.49076869484975
 10
155.19125539368503
 20
219.49031077929874
 10
167.27793316542068
 20
174.82285716412048
 10
156.19284349444317
 20
171.8233150796715
 10
144.10616572270752
 20
216.49076869484975
  0
LWPOLYLINE
  5
129
330
17
100
AcDbEntity
  8
EFF_NORMAL_STRESS
100
AcDbPolyline
 90
5
 70
1
 10
155.19125539368503
 20
219.49031077929874
 10
166.2763450646625
 20
222.98488803064845
 10
175.08908829258303
 20
195.03013359187682
 10
164.00399862160555
 20
191.5355563405271
 10
155.19125539368503
 20
219.49031077929874
  0
LWPOLYLINE
  5
12A
330
17
100
AcDbEntity
  8
PORE_PRESSURE
100
AcDbPolyline
 90
5
 70
1
 10
155.19125539368503
 20
219.49031077929874
 10
166.2763450646625
 20
222.98488803064845
 10
179.65222257282113
 20
180.55549215774798
 10
168.56713290184365
 20
177.06091490639827
 10
155.19125539368503
 20
219.49031077929874
  0
LWPOLYLINE
  5
12B
330
17
100
AcDbEntity
  8
EFF_NORMAL_STRESS
100
AcDbPolyline
 90
5
 70
1
 10
166.2763450646625
 20
222.98488803064845
 10
177.36143473564002
 20
226.99429748560863
 10
187.14324693494225
 20
199.94984952088862
 10
176.05815726396474
 20
195.94044006592844
 10
166.2763450646625
 20
222.98488803064845
  0
LWPOLYLINE
  5
12C
330
17
100
AcDbEntity
  8
PORE_PRESSURE
100
AcDbPolyline
 90
5
 70
1
 10
166.2763450646625
 20
222.98488803064845
 10
177.36143473564002
 20
226.99429748560863
 10
191.7911354710281
 20
187.0995128860308
 10
180.7060458000506
 20
183.09010343107062
 10
166.2763450646625
 20
222.98488803064845
  0
LWPOLYLINE
  5
12D
330
17
100
AcDbEntity
  8
EFF_NORMAL_STRESS
100
AcDbPolyline
 90
5
 70
1
 10
177.36143473564002
 20
226.99429748560863
 10
189.27107605173
 20
231.9031971209725
 10
199.5276462635506
 20
207.01939801534627
 10
187.6180049474606
 20
202.1104983799824
 10
177.36143473564002
 20
226.99429748560863
  0
LWPOLYLINE
  5
12E
330
17
100
AcDbEntity
  8
PORE_PRESSURE
100
AcDbPolyline
 90
5
 70
1
 10
177.36143473564002
 20
226.99429748560863
 10
189.27107605173
 20
231.9031971209725
 10
204.50559454814754
 20
194.94223552204528
 10
192.59595323205758
 20
190.0333358866814
 10
177.36143473564002
 20
226.99429748560863
  0
LWPOLYLINE
  5
12F
330
17
100
AcDbEntity
  8
EFF_NORMAL_STRESS
100
AcDbPolyline
 90
5
 70
1
 10
189.27107605173
 20
231.9031971209725
 10
201.18071736782002
 20
237.47059147602172
 10
212.02904910170795
 20
214.26409098600573
 10
200.11940778561794
 20
208.69669663095652
 10
189.27107605173
 20
231.9031971209725
  0
LWPOLYLINE
  5
130
330
17
100
AcDbEntity
  8
PORE_PRESSURE
100
AcDbPolyline
 90
5
 70
1
 10
189.27107605173
 20
231.9031971209725
 10
201.18071736782002
 20
237.47059147602172
 10
216.89070656079826
 20
203.86414572490756
 10
204.98106524470825
 20
198.29675136985833
 10
189.27107605173
 20
231.9031971209725
  0
LWPOLYLINE
  5
131
330
17
100
AcDbEntity
  8
EFF_NORMAL_STRESS
100
AcDbPolyline
 90
5
 70
1
 10
201.18071736782002
 20
237.47059147602172
 10
213.09035868391
 20
243.74129535429853
 10
224.2989745366051
 20
222.45331922806466
 10
212.3893332205151
 20
216.18261534978785
 10
201.18071736782002
 20
237.47059147602172
  0
LWPOLYLINE
  5
132
330
17
100
AcDbEntity
  8
PORE_PRESSURE
100
AcDbPolyline
 90
5
 70
1
 10
201.18071736782002
 20
237.47059147602172
 10
213.09035868391
 20
243.74129535429853
 10
228.85729009253092
 20
213.79593333799005
 10
216.94764877644093
 20
207.52522945971324
 10
201.18071736782002
 20
237.47059147602172
  0
LWPOLYLINE
  5
133
330
17
100
AcDbEntity
  8
EFF_NORMAL_STRESS
100
AcDbPolyline
 90
5
 70
1
 10
213.09035868391
 20
243.74129535429853
 10
225.0
 20
250.77080856355212
 10
236.30479935914943
 20
231.61783146399995
 10
224.39515804305944
 20
224.58831825474635
 10
213.09035868391
 20
243.74129535429853
  0
LWPOLYLINE
  5
134
330
17
100
AcDbEntity
  8
PORE_PRESSURE
100
AcDbPolyline
 90
5
 70
1
 10
213.09035868391
 20
243.74129535429853
 10
225.0
 20
250.77080856355212
 10
240.34380494672266
 20
224.77481027750326
 10
228.43416363063267
 20
217.74529706824967
 10
213.09035868391
 20
243.74129535429853
  0
LWPOLYLINE
  5
135
330
17
100
AcDbEntity
  8
EFF_NORMAL_STRESS
100
AcDbPolyline
 90
5
 70
1
 10
225.0
 20
250.77080856355212
 10
235.93129557866158
 20
257.9498492677934
 10
247.495432391141
 20
240.34150815132477
 10
236.56413681247943
 20
233.1624674470835
 10
225.0
 20
250.77080856355212
  0
LWPOLYLINE
  5
136
330
17
100
AcDbEntity
  8
PORE_PRESSURE
100
AcDbPolyline
 90
5
 70
1
 10
225.0
 20
250.77080856355212
 10
235.93129557866158
 20
257.9498492677934
 10
250.3530852705385
 20
235.99025154576572
 10
239.4217896918769
 20
228.81121084152443
 10
225.0
 20
250.77080856355212
  0
LWPOLYLINE
  5
137
330
17
100
AcDbEntity
  8
EFF_NORMAL_STRESS
100
AcDbPolyline
 90
5
 70
1
 10
235.93129557866158
 20
257.9498492677934
 10
246.86259115732315
 20
265.8937079649955
 10
258.91746980116415
 20
249.30536637388258
 10
247.9861742225026
 20
241.3615076766805
 10
235.93129557866158
 20
257.9498492677934
  0
LWPOLYLINE
  5
138
330
17
100
AcDbEntity
  8
PORE_PRESSURE
100
AcDbPolyline
 90
5
 70
1
 10
235.93129557866158
 20
257.9498492677934
 10
246.86259115732315
 20
265.8937079649955
 10
259.8634502199776
 20
248.00363229680013
 10
248.93215464131603
 20
240.05977359959806
 10
235.93129557866158
 20
257.9498492677934
  0
LWPOLYLINE
  5
139
330
17
100
AcDbEntity
  8
EFF_NORMAL_STRESS
100
AcDbPolyline
 90
5
 70
1
 10
246.86259115732315
 20
265.8937079649955
 10
257.79388673598476
 20
274.6873618613378
 10
270.1056482267331
 20
259.38274497104464
 10
259.1743526480715
 20
250.5890910747023
 10
246.86259115732315
 20
265.8937079649955
  0
LWPOLYLINE
  5
13A
330
17
100
AcDbEntity
  8
PORE_PRESSURE
100
AcDbPolyline
 90
5
 70
1
 10
246.86259115732315
 20
265.8937079649955
 10
257.79388673598476
 20
274.6873618613378
 10
268.772609952695
 20
261.0398303604571
 10
257.8413143740334
 20
252.24617646411477
 10
246.86259115732315
 20
265.8937079649955
  0
LWPOLYLINE
  5
13B
330
17
100
AcDbEntity
  8
EFF_NORMAL_STRESS
100
AcDbPolyline
 90
5
 70
1
 10
257.79388673598476
 20
274.6873618613378
 10
268.7251823146463
 20
284.4403026084776
 10
281.02017030748146
 20
270.65982845505977
 10
270.0888747288199
 20
260.90688770791996
 10
257.79388673598476
 20
274.6873618613378
  0
LWPOLYLINE
  5
13C
330
17
100
AcDbEntity
  8
PORE_PRESSURE
100
AcDbPolyline
 90
5
 70
1
 10
257.79388673598476
 20
274.6873618613378
 10
268.7251823146463
 20
284.4403026084776
 10
276.9935445607183
 20
275.17295299500176
 10
266.06224898205676
 20
265.42001224786196
 10
257.79388673598476
 20
274.6873618613378
  0
LWPOLYLINE
  5
13D
330
17
100
AcDbEntity
  8
EFF_NORMAL_STRESS
100
AcDbPolyline
 90
5
 70
1
 10
268.7251823146463
 20
284.4403026084776
 10
270.0
 20
285.64635789242766
 10
282.73660603463105
 20
272.18358314204323
 10
281.46178834927736
 20
270.9775278580932
 10
268.7251823146463
 20
284.4403026084776
  0
LWPOLYLINE
  5
13E
330
17
100
AcDbEntity
  8
PORE_PRESSURE
100
AcDbPolyline
 90
5
 70
1
 10
268.7251823146463
 20
284.4403026084776
 10
270.0
 20
285.64635789242766
 10
276.41494737084054
 20
278.86566676840494
 10
275.14012968548684
 20
277.6596114844549
 10
268.7251823146463
 20
284.4403026084776
  0
LWPOLYLINE
  5
13F
330
17
100
AcDbEntity
  8
EFF_NORMAL_STRESS
100
AcDbPolyline
 90
5
 70
1
 10
270.0
 20
285.64635789242766
 10
280.0
 20
295.65834367579873
 10
291.4671689415366
 20
284.2049025806441
 10
281.4671689415366
 20
274.192916797273
 10
270.0
 20
285.64635789242766
  0
LWPOLYLINE
  5
140
330
17
100
AcDbEntity
  8
PORE_PRESSURE
100
AcDbPolyline
 90
5
 70
1
 10
270.0
 20
285.64635789242766
 10
280.0
 20
295.65834367579873
 10
284.46830009144486
 20
291.19539278061643
 10
274.46830009144486
 20
281.18340699724536
 10
270.0
 20
285.64635789242766
  0
LWPOLYLINE
  5
141
330
17
100
AcDbEntity
  8
EFF_NORMAL_STRESS
100
AcDbPolyline
 90
5
 70
1
 10
280.0
 20
295.65834367579873
 10
282.53575153728303
 20
298.3638876364771
 10
293.2125831855373
 20
288.35710428390325
 10
290.6768316482543
 20
285.6515603232249
 10
280.0
 20
295.65834367579873
  0
LWPOLYLINE
  5
142
330
17
100
AcDbEntity
  8
PORE_PRESSURE
100
AcDbPolyline
 90
5
 70
1
 10
280.0
 20
295.65834367579873
 10
282.53575153728303
 20
298.3638876364771
 10
283.45339718330666
 20
297.5038308821222
 10
280.91764564602363
 20
294.79828692144383
 10
280.0
 20
295.65834367579873
  0
LWPOLYLINE
  5
143
330
17
100
AcDbEntity
  8
EFF_NORMAL_STRESS
100
AcDbPolyline
 90
5
 70
1
 10
282.53575153728303
 20
298.3638876364771
 10
290.19025348168515
 20
306.98822265087983
 10
298.4456636186649
 20
299.66115884366235
 10
290.7911616742628
 20
291.0368238292596
 10
282.53575153728303
 20
298.3638876364771
  0
LWPOLYLINE
  5
144
330
17
100
AcDbEntity
  8
PORE_PRESSURE
100
AcDbPolyline
 90
4
 70
1
 10
282.53575153728303
 20
298.3638876364771
 10
290.19025348168515
 20
306.98822265087983
 10
290.19025348168515
 20
306.98822265087983
 10
282.53575153728303
 20
298.3638876364771
  0
LWPOLYLINE
  5
145
330
17
100
AcDbEntity
  8
EFF_NORMAL_STRESS
100
AcDbPolyline
 90
5
 70
1
 10
290.19025348168515
 20
306.98822265087983
 10
298.3185704476743
 20
316.9899697622976
 10
301.1700266529119
 20
314.67262064392725
 10
293.04170968692273
 20
304.67087353250946
 10
290.19025348168515
 20
306.98822265087983
  0
LWPOLYLINE
  5
146
330
17
100
AcDbEntity
  8
PORE_PRESSURE
100
AcDbPolyline
 90
4
 70
1
 10
290.19025348168515
 20
306.98822265087983
 10
298.3185704476743
 20
316.9899697622976
 10
298.3185704476743
 20
316.9899697622976
 10
290.19025348168515
 20
306.98822265087983
  0
ENDSEC
  0
SECTION
  2
OBJECTS
  0
DICTIONARY
  5
A
330
0
100
AcDbDictionary
281
1
  3
ACAD_COLOR
350
B
  3
ACAD_GROUP
350
C
  3
ACAD_LAYOUT
350
D
  3
ACAD_MATERIAL
350
E
  3
ACAD_MLEADERSTYLE
350
F
  3
ACAD_MLINESTYLE
350
10
  3
ACAD_PLOTSETTINGS
350
11
  3
ACAD_PLOTSTYLENAME
350
12
  3
ACAD_SCALELIST
350
14
  3
ACAD_TABLESTYLE
350
15
  3
ACAD_VISUALSTYLE
350
16
  3
EZDXF_META
350
2D
  0
DICTIONARY
  5
B
330
A
100
AcDbDictionary
281
1
  0
DICTIONARY
  5
C
330
A
100
AcDbDictionary
281
1
  0
DICTIONARY
  5
D
330
A
100
AcDbDictionary
281
1
  3
Model
350
1A
  3
Layout1
350
1E
  0
DICTIONARY
  5
E
330
A
100
AcDbDictionary
281
1
  3
ByBlock
350
1F
  3
ByLayer
350
20
  3
Global
350
21
  0
DICTIONARY
  5
F
330
A
100
AcDbDictionary
281
1
  3
Standard
350
2C
  0
DICTIONARY
  5
10
330
A
100
AcDbDictionary
281
1
  3
Standard
350
22
  0
DICTIONARY
  5
11
330
A
100
AcDbDictionary
281
1
  0
ACDBDICTIONARYWDFLT
  5
12
330
A
100
AcDbDictionary
281
1
  3
Normal
350
13
100
AcDbDictionaryWithDefault
340
13
  0
ACDBPLACEHOLDER
  5
13
330
12
  0
DICTIONARY
  5
14
330
A
100
AcDbDictionary
281
1
  0
DICTIONARY
  5
15
330
A
100
AcDbDictionary
281
1
  0
DICTIONARY
  5
16
330
A
100
AcDbDictionary
281
1
  0
LAYOUT
  5
1A
330
D
100
AcDbPlotSettings
  1

  4
A3
  6

 40
7.5
 41
20.0
 42
7.5
 43
20.0
 44
420.0
 45
297.0
 46
0.0
 47
0.0
 48
0.0
 49
0.0
140
0.0
141
0.0
142
1.0
143
1.0
 70
1024
 72
1
 73
0
 74
5
  7

 75
16
 76
0
 77
2
 78
300
147
1.0
148
0.0
149
0.0
100
AcDbLayout
  1
Model
 70
1
 71
0
 10
0.0
 20
0.0
 11
420.0
 21
297.0
 12
0.0
 22
0.0
 32
0.0
 14
1e+20
 24
1e+20
 34
1e+20
 15
-1e+20
 25
-1e+20
 35
-1e+20
146
0.0
 13
0.0
 23
0.0
 33
0.0
 16
1.0
 26
0.0
 36
0.0
 17
0.0
 27
1.0
 37
0.0
 76
1
330
17
  0
LAYOUT
  5
1E
330
D
100
AcDbPlotSettings
  1

  4
A3
  6

 40
7.5
 41
20.0
 42
7.5
 43
20.0
 44
420.0
 45
297.0
 46
0.0
 47
0.0
 48
0.0
 49
0.0
140
0.0
141
0.0
142
1.0
143
1.0
 70
0
 72
1
 73
0
 74
5
  7

 75
16
 76
0
 77
2
 78
300
147
1.0
148
0.0
149
0.0
100
AcDbLayout
  1
Layout1
 70
1
 71
1
 10
0.0
 20
0.0
 11
420.0
 21
297.0
 12
0.0
 22
0.0
 32
0.0
 14
1e+20
 24
1e+20
 34
1e+20
 15
-1e+20
 25
-1e+20
 35
-1e+20
146
0.0
 13
0.0
 23
0.0
 33
0.0
 16
1.0
 26
0.0
 36
0.0
 17
0.0
 27
1.0
 37
0.0
 76
1
330
1B
  0
MATERIAL
  5
1F
102
{ACAD_REACTORS
330
E
102
}
330
E
100
AcDbMaterial
  1
ByBlock
  2

 70
0
 40
1.0
 71
1
 41
1.0
 91
-1023410177
 42
1.0
 72
1
  3

 73
1
 74
1
 75
1
 44
0.5
 73
0
 45
1.0
 46
1.0
 77
1
  4

 78
1
 79
1
170
1
 48
1.0
171
1
  6

172
1
173
1
174
1
140
1.0
141
1.0
175
1
  7

176
1
177
1
178
1
143
1.0
179
1
  8

270
1
271
1
272
1
145
1.0
146
1.0
273
1
  9

274
1
275
1
276
1
 42
1.0
 72
1
  3

 73
1
 74
1
 75
1
 94
63
  0
MATERIAL
  5
20
102
{ACAD_REACTORS
330
E
102
}
330
E
100
AcDbMaterial
  1
ByLayer
  2

 70
0
 40
1.0
 71
1
 41
1.0
 91
-1023410177
 42
1.0
 72
1
  3

 73
1
 74
1
 75
1
 44
0.5
 73
0
 45
1.0
 46
1.0
 77
1
  4

 78
1
 79
1
170
1
 48
1.0
171
1
  6

172
1
173
1
174
1
140
1.0
141
1.0
175
1
  7

176
1
177
1
178
1
143
1.0
179
1
  8

270
1
271
1
272
1
145
1.0
146
1.0
273
1
  9

274
1
275
1
276
1
 42
1.0
 72
1
  3

 73
1
 74
1
 75
1
 94
63
  0
MATERIAL
  5
21
102
{ACAD_REACTORS
330
E
102
}
330
E
100
AcDbMaterial
  1
Global
  2

 70
0
 40
1.0
 71
1
 41
1.0
 91
-1023410177
 42
1.0
 72
1
  3

 73
1
 74
1
 75
1
 44
0.5
 73
0
 45
1.0
 46
1.0
 77
1
  4

 78
1
 79
1
170
1
 48
1.0
171
1
  6

172
1
173
1
174
1
140
1.0
141
1.0
175
1
  7

176
1
177
1
178
1
143
1.0
179
1
  8

270
1
271
1
272
1
145
1.0
146
1.0
273
1
  9

274
1
275
1
276
1
 42
1.0
 72
1
  3

 73
1
 74
1
 75
1
 94
63
  0
MLINESTYLE
  5
22
102
{ACAD_REACTORS
330
10
102
}
330
10
100
AcDbMlineStyle
  2
Standard
 70
0
  3

 62
256
 51
90.0
 52
90.0
 71
2
 49
0.5
 62
256
  6
BYLAYER
 49
-0.5
 62
256
  6
BYLAYER
  0
MLEADERSTYLE
  5
2C
102
{ACAD_REACTORS
330
F
102
}
330
F
100
AcDbMLeaderStyle
179
2
170
2
171
1
172
0
 90
2
 40
0.0
 41
0.0
173
1
 91
-1056964608
 92
-2
290
1
 42
2.0
291
1
 43
8.0
  3
Standard
 44
4.0
300

342
29
174
1
175
1
176
0
178
1
 93
-1056964608
 45
4.0
292
0
297
0
 46
4.0
 94
-1056964608
 47
1.0
 49
1.0
140
1.0
294
1
141
0.0
177
0
142
1.0
295
0
296
0
143
3.75
271
0
272
9
273
9
  0
DICTIONARY
  5
2D
330
A
100
AcDbDictionary
280
1
281
1
  3
CREATED_BY_EZDXF
350
2E
  3
WRITTEN_BY_EZDXF
350
149
  0
DICTIONARYVAR
  5
2E
330
2D
100
DictionaryVariables
280
0
  1
1.4.4 @ 2026-06-09T17:21:30.089445+00:00
  0
DICTIONARYVAR
  5
149
330
2D
100
DictionaryVariables
280
0
  1
1.4.4 @ 2026-06-09T17:21:30.101661+00:00
  0
ENDSEC
  0
EOF
